<?xml version="1.0" standalone="no"?><svg xmlns:xlink="http://www.w3.org/1999/xlink" xmlns="http://www.w3.org/2000/svg" viewBox="0 0 1000 571.4285714285714" preserveAspectRatio="xMaxYMax slice"><g transform="scale(1.3382402141184342)"><rect x="0" y="0" width="747.25" height="427" fill="#ffffff"/><g transform="translate(0,0) scale(2.669) rotate(0)"><path d="M10 5L5 0L0 5L5 10L0 15L5 20L10 15L15 20L20 15L15 10L20 5L15 0L10 5Z" fill="#ff3352"/></g><circle cx="80.07000000000001" cy="26.69" r="26.69" fill="#c9f33f"/><path d="M 106.75 53.38 A 53.38 53.38 0 0 1  160.13 0 L 106.75 53.38 A 53.38 53.38 0 0 0 160.13 0" fill="#ff3352"/><rect x="160.125" y="0" width="53.375" height="53.375" fill="#ffffff"/><path d="M 160.13 26.69 A 26.69 26.69 0 0 1  186.82 0 L 160.13 26.69 A 26.69 26.69 0 0 0 186.82 0" fill="#c9f33f"/><path d="M 186.81 26.69 A 26.69 26.69 0 0 1  213.5 0 L 213.5 26.69L186.81 26.69" fill="#8a4ce6"/><path d="M 160.13 26.69 A 26.69 26.69 0 0 0 186.82 53.38 L 186.82 26.69L160.13 26.69" fill="#1c58fd"/><path d="M 186.81 53.38 A 26.69 26.69 0 0 1  213.5 26.69 L 213.5 53.38L186.81 53.38" fill="#1c58fd"/><g transform="translate(213.5,0) scale(2.669) rotate(0)"><path d="M10 5L5 0L0 5L5 10L0 15L5 20L10 15L15 20L20 15L15 10L20 5L15 0L10 5Z" fill="#1c58fd"/></g><rect x="266.875" y="0" width="53.375" height="53.375" fill="#ffffff"/><g transform="translate(266.88,0) scale(1.3345) rotate(0)"><path d="M10 5L5 0L0 5L5 10L0 15L5 20L10 15L15 20L20 15L15 10L20 5L15 0L10 5Z" fill="#ff3352"/></g><g transform="translate(293.56,0) scale(1.3345) rotate(0)"><path d="M10 5L5 0L0 5L5 10L0 15L5 20L10 15L15 20L20 15L15 10L20 5L15 0L10 5Z" fill="#1c58fd"/></g><g transform="translate(266.88,26.69) scale(1.3345) rotate(0)"><path d="M10 5L5 0L0 5L5 10L0 15L5 20L10 15L15 20L20 15L15 10L20 5L15 0L10 5Z" fill="#8a4ce6"/></g><circle cx="306.90500000000003" cy="40.035000000000004" r="13.345" fill="#c9f33f"/><path d="M 320.25 0 A 53.38 53.38 0 0 1 373.63 53.38 L 320.25 53.38L320.25 0" fill="#ff3352"/><path d="M 373.63 53.38 A 53.38 53.38 0 0 0 427.01 0 L 373.63 0L373.63 53.38" fill="#c9f33f"/><path d="M 427 53.38 A 53.38 53.38 0 0 1  480.38 0 L 427 53.38 A 53.38 53.38 0 0 0 480.38 0" fill="#8a4ce6"/><rect x="480.375" y="0" width="53.375" height="53.375" fill="#ffffff"/><g transform="translate(480.38,0) scale(1.3345) rotate(0)"><path d="M10 5L5 0L0 5L5 10L0 15L5 20L10 15L15 20L20 15L15 10L20 5L15 0L10 5Z" fill="#8a4ce6"/></g><g transform="translate(507.06,0) scale(1.3345) rotate(0)"><path d="M10 5L5 0L0 5L5 10L0 15L5 20L10 15L15 20L20 15L15 10L20 5L15 0L10 5Z" fill="#8a4ce6"/></g><circle cx="493.725" cy="40.035000000000004" r="13.345" fill="#1c58fd"/><g transform="translate(507.06,26.69) scale(1.3345) rotate(0)"><path d="M10 5L5 0L0 5L5 10L0 15L5 20L10 15L15 20L20 15L15 10L20 5L15 0L10 5Z" fill="#1c58fd"/></g><g transform="translate(533.75,0) scale(2.669) rotate(0)"><path d="M10 5L5 0L0 5L5 10L0 15L5 20L10 15L15 20L20 15L15 10L20 5L15 0L10 5Z" fill="#1c58fd"/></g><circle cx="613.82" cy="26.69" r="26.69" fill="#c9f33f"/><path d="M 640.5 0 A 53.38 53.38 0 0 0 693.88 53.38 L 693.88 0L640.5 0" fill="#ff3352"/><circle cx="720.57" cy="26.69" r="26.69" fill="#ff3352"/><g transform="translate(0,53.38) scale(2.669) rotate(0)"><path d="M10 5L5 0L0 5L5 10L0 15L5 20L10 15L15 20L20 15L15 10L20 5L15 0L10 5Z" fill="#c9f33f"/></g><circle cx="80.07000000000001" cy="80.07000000000001" r="26.69" fill="#1c58fd"/><circle cx="133.44" cy="80.07000000000001" r="26.69" fill="#ff3352"/><g transform="translate(160.13,53.38) scale(2.669) rotate(0)"><path d="M10 5L5 0L0 5L5 10L0 15L5 20L10 15L15 20L20 15L15 10L20 5L15 0L10 5Z" fill="#8a4ce6"/></g><rect x="213.5" y="53.375" width="53.375" height="53.375" fill="#ffffff"/><path d="M 213.5 53.38 A 26.69 26.69 0 0 1  240.19 80.07000000000001 L 213.5 53.38 A 26.69 26.69 0 0 0 240.19 80.07000000000001" fill="#ff3352"/><path d="M 240.19 53.38 A 26.69 26.69 0 0 1  266.88 80.07000000000001 L 240.19 53.38 A 26.69 26.69 0 0 0 266.88 80.07000000000001" fill="#8a4ce6"/><g transform="translate(213.5,80.06) scale(1.3345) rotate(0)"><path d="M10 5L5 0L0 5L5 10L0 15L5 20L10 15L15 20L20 15L15 10L20 5L15 0L10 5Z" fill="#ff3352"/></g><path d="M 240.19 106.75 A 26.69 26.69 0 0 1  266.88 80.06 L 266.88 106.75L240.19 106.75" fill="#c9f33f"/><rect x="266.875" y="53.375" width="53.375" height="53.375" fill="#ffffff"/><path d="M 266.88 80.07000000000001 A 26.69 26.69 0 0 1  293.57 53.38 L 293.57 80.07000000000001L266.88 80.07000000000001" fill="#8a4ce6"/><circle cx="306.90500000000003" cy="66.72500000000001" r="13.345" fill="#ff3352"/><g transform="translate(266.88,80.06) scale(1.3345) rotate(0)"><path d="M10 5L5 0L0 5L5 10L0 15L5 20L10 15L15 20L20 15L15 10L20 5L15 0L10 5Z" fill="#ff3352"/></g><circle cx="306.90500000000003" cy="93.405" r="13.345" fill="#1c58fd"/><path d="M 320.25 106.76 A 53.38 53.38 0 0 0 373.63 53.38 L 320.25 53.38L320.25 106.76" fill="#8a4ce6"/><g transform="translate(373.63,53.38) scale(2.669) rotate(0)"><path d="M10 5L5 0L0 5L5 10L0 15L5 20L10 15L15 20L20 15L15 10L20 5L15 0L10 5Z" fill="#ff3352"/></g><path d="M 427 53.38 A 53.38 53.38 0 0 0 480.38 106.76 L 480.38 53.38L427 53.38" fill="#ff3352"/><circle cx="507.07" cy="80.07000000000001" r="26.69" fill="#1c58fd"/><rect x="533.75" y="53.375" width="53.375" height="53.375" fill="#ffffff"/><g transform="translate(533.75,53.38) scale(1.3345) rotate(0)"><path d="M10 5L5 0L0 5L5 10L0 15L5 20L10 15L15 20L20 15L15 10L20 5L15 0L10 5Z" fill="#8a4ce6"/></g><circle cx="573.7850000000001" cy="66.72500000000001" r="13.345" fill="#8a4ce6"/><g transform="translate(533.75,80.06) scale(1.3345) rotate(0)"><path d="M10 5L5 0L0 5L5 10L0 15L5 20L10 15L15 20L20 15L15 10L20 5L15 0L10 5Z" fill="#1c58fd"/></g><path d="M 560.44 80.06 A 26.69 26.69 0 0 0 587.1300000000001 106.75 L 587.1300000000001 80.06L560.44 80.06" fill="#8a4ce6"/><g transform="translate(587.13,53.38) scale(2.669) rotate(0)"><path d="M10 5L5 0L0 5L5 10L0 15L5 20L10 15L15 20L20 15L15 10L20 5L15 0L10 5Z" fill="#1c58fd"/></g><circle cx="667.19" cy="80.07000000000001" r="26.69" fill="#c9f33f"/><path d="M 693.88 53.38 A 53.38 53.38 0 0 0 747.26 106.76 L 747.26 53.38L693.88 53.38" fill="#8a4ce6"/><rect x="0" y="106.75" width="53.375" height="53.375" fill="#ffffff"/><circle cx="13.345" cy="120.095" r="13.345" fill="#8a4ce6"/><path d="M 26.69 106.75 A 26.69 26.69 0 0 1  53.38 133.44 L 26.69 106.75 A 26.69 26.69 0 0 0 53.38 133.44" fill="#1c58fd"/><circle cx="13.345" cy="146.785" r="13.345" fill="#c9f33f"/><g transform="translate(26.69,133.44) scale(1.3345) rotate(0)"><path d="M10 5L5 0L0 5L5 10L0 15L5 20L10 15L15 20L20 15L15 10L20 5L15 0L10 5Z" fill="#8a4ce6"/></g><circle cx="80.07000000000001" cy="133.44" r="26.69" fill="#1c58fd"/><rect x="106.75" y="106.75" width="53.375" height="53.375" fill="#ffffff"/><circle cx="120.095" cy="120.095" r="13.345" fill="#8a4ce6"/><g transform="translate(133.44,106.75) scale(1.3345) rotate(0)"><path d="M10 5L5 0L0 5L5 10L0 15L5 20L10 15L15 20L20 15L15 10L20 5L15 0L10 5Z" fill="#ff3352"/></g><circle cx="120.095" cy="146.785" r="13.345" fill="#1c58fd"/><circle cx="146.785" cy="146.785" r="13.345" fill="#8a4ce6"/><circle cx="186.82" cy="133.44" r="26.69" fill="#1c58fd"/><g transform="translate(213.5,106.75) scale(2.669) rotate(0)"><path d="M10 5L5 0L0 5L5 10L0 15L5 20L10 15L15 20L20 15L15 10L20 5L15 0L10 5Z" fill="#1c58fd"/></g><circle cx="293.57" cy="133.44" r="26.69" fill="#1c58fd"/><rect x="320.25" y="106.75" width="53.375" height="53.375" fill="#ffffff"/><circle cx="333.595" cy="120.095" r="13.345" fill="#1c58fd"/><path d="M 346.94 133.44 A 26.69 26.69 0 0 0 373.63 106.75 L 346.94 106.75L346.94 133.44" fill="#1c58fd"/><g transform="translate(320.25,133.44) scale(1.3345) rotate(0)"><path d="M10 5L5 0L0 5L5 10L0 15L5 20L10 15L15 20L20 15L15 10L20 5L15 0L10 5Z" fill="#ff3352"/></g><path d="M 346.94 133.44 A 26.69 26.69 0 0 1 373.63 160.13 L 346.94 160.13L346.94 133.44" fill="#ff3352"/><circle cx="400.32" cy="133.44" r="26.69" fill="#8a4ce6"/><circle cx="453.69" cy="133.44" r="26.69" fill="#1c58fd"/><rect x="480.375" y="106.75" width="53.375" height="53.375" fill="#ffffff"/><path d="M 480.38 133.44 A 26.69 26.69 0 0 0 507.07 106.75 L 480.38 106.75L480.38 133.44" fill="#ff3352"/><g transform="translate(507.06,106.75) scale(1.3345) rotate(0)"><path d="M10 5L5 0L0 5L5 10L0 15L5 20L10 15L15 20L20 15L15 10L20 5L15 0L10 5Z" fill="#8a4ce6"/></g><circle cx="493.725" cy="146.785" r="13.345" fill="#c9f33f"/><circle cx="520.405" cy="146.785" r="13.345" fill="#1c58fd"/><g transform="translate(533.75,106.75) scale(2.669) rotate(0)"><path d="M10 5L5 0L0 5L5 10L0 15L5 20L10 15L15 20L20 15L15 10L20 5L15 0L10 5Z" fill="#ff3352"/></g><rect x="587.125" y="106.75" width="53.375" height="53.375" fill="#ffffff"/><path d="M 587.13 133.44 A 26.69 26.69 0 0 0 613.82 106.75 L 587.13 106.75L587.13 133.44" fill="#ff3352"/><circle cx="627.155" cy="120.095" r="13.345" fill="#1c58fd"/><g transform="translate(587.13,133.44) scale(1.3345) rotate(0)"><path d="M10 5L5 0L0 5L5 10L0 15L5 20L10 15L15 20L20 15L15 10L20 5L15 0L10 5Z" fill="#ff3352"/></g><g transform="translate(613.81,133.44) scale(1.3345) rotate(0)"><path d="M10 5L5 0L0 5L5 10L0 15L5 20L10 15L15 20L20 15L15 10L20 5L15 0L10 5Z" fill="#1c58fd"/></g><rect x="640.5" y="106.75" width="53.375" height="53.375" fill="#ffffff"/><circle cx="653.845" cy="120.095" r="13.345" fill="#8a4ce6"/><g transform="translate(667.19,106.75) scale(1.3345) rotate(0)"><path d="M10 5L5 0L0 5L5 10L0 15L5 20L10 15L15 20L20 15L15 10L20 5L15 0L10 5Z" fill="#ff3352"/></g><circle cx="653.845" cy="146.785" r="13.345" fill="#8a4ce6"/><g transform="translate(667.19,133.44) scale(1.3345) rotate(0)"><path d="M10 5L5 0L0 5L5 10L0 15L5 20L10 15L15 20L20 15L15 10L20 5L15 0L10 5Z" fill="#8a4ce6"/></g><g transform="translate(693.88,106.75) scale(2.669) rotate(0)"><path d="M10 5L5 0L0 5L5 10L0 15L5 20L10 15L15 20L20 15L15 10L20 5L15 0L10 5Z" fill="#8a4ce6"/></g><g transform="translate(0,160.13) scale(2.669) rotate(0)"><path d="M10 5L5 0L0 5L5 10L0 15L5 20L10 15L15 20L20 15L15 10L20 5L15 0L10 5Z" fill="#1c58fd"/></g><circle cx="80.07000000000001" cy="186.82" r="26.69" fill="#ff3352"/><rect x="106.75" y="160.125" width="53.375" height="53.375" fill="#ffffff"/><path d="M 106.75 160.13 A 26.69 26.69 0 0 1  133.44 186.82 L 106.75 160.13 A 26.69 26.69 0 0 0 133.44 186.82" fill="#c9f33f"/><path d="M 133.44 186.82 A 26.69 26.69 0 0 1  160.13 160.13 L 160.13 186.82L133.44 186.82" fill="#8a4ce6"/><g transform="translate(106.75,186.81) scale(1.3345) rotate(0)"><path d="M10 5L5 0L0 5L5 10L0 15L5 20L10 15L15 20L20 15L15 10L20 5L15 0L10 5Z" fill="#8a4ce6"/></g><path d="M 133.44 186.81 A 26.69 26.69 0 0 0 160.13 213.5 L 160.13 186.81L133.44 186.81" fill="#1c58fd"/><rect x="160.125" y="160.125" width="53.375" height="53.375" fill="#ffffff"/><path d="M 160.13 160.13 A 26.69 26.69 0 0 0 186.82 186.82 L 186.82 160.13L160.13 160.13" fill="#8a4ce6"/><g transform="translate(186.81,160.13) scale(1.3345) rotate(0)"><path d="M10 5L5 0L0 5L5 10L0 15L5 20L10 15L15 20L20 15L15 10L20 5L15 0L10 5Z" fill="#ff3352"/></g><g transform="translate(160.13,186.81) scale(1.3345) rotate(0)"><path d="M10 5L5 0L0 5L5 10L0 15L5 20L10 15L15 20L20 15L15 10L20 5L15 0L10 5Z" fill="#ff3352"/></g><g transform="translate(186.81,186.81) scale(1.3345) rotate(0)"><path d="M10 5L5 0L0 5L5 10L0 15L5 20L10 15L15 20L20 15L15 10L20 5L15 0L10 5Z" fill="#1c58fd"/></g><rect x="213.5" y="160.125" width="53.375" height="53.375" fill="#ffffff"/><circle cx="226.845" cy="173.475" r="13.345" fill="#1c58fd"/><g transform="translate(240.19,160.13) scale(1.3345) rotate(0)"><path d="M10 5L5 0L0 5L5 10L0 15L5 20L10 15L15 20L20 15L15 10L20 5L15 0L10 5Z" fill="#8a4ce6"/></g><g transform="translate(213.5,186.81) scale(1.3345) rotate(0)"><path d="M10 5L5 0L0 5L5 10L0 15L5 20L10 15L15 20L20 15L15 10L20 5L15 0L10 5Z" fill="#8a4ce6"/></g><circle cx="253.535" cy="200.155" r="13.345" fill="#8a4ce6"/><g transform="translate(266.88,160.13) scale(2.669) rotate(0)"><path d="M10 5L5 0L0 5L5 10L0 15L5 20L10 15L15 20L20 15L15 10L20 5L15 0L10 5Z" fill="#c9f33f"/></g><path d="M 320.25 160.13 A 53.38 53.38 0 0 0 373.63 213.51 L 373.63 160.13L320.25 160.13" fill="#ff3352"/><g transform="translate(373.63,160.13) scale(2.669) rotate(0)"><path d="M10 5L5 0L0 5L5 10L0 15L5 20L10 15L15 20L20 15L15 10L20 5L15 0L10 5Z" fill="#c9f33f"/></g><circle cx="453.69" cy="186.82" r="26.69" fill="#1c58fd"/><path d="M 480.38 160.13 A 53.38 53.38 0 0 1  533.76 213.51 L 480.38 160.13 A 53.38 53.38 0 0 0 533.76 213.51" fill="#8a4ce6"/><circle cx="560.44" cy="186.82" r="26.69" fill="#ff3352"/><g transform="translate(587.13,160.13) scale(2.669) rotate(0)"><path d="M10 5L5 0L0 5L5 10L0 15L5 20L10 15L15 20L20 15L15 10L20 5L15 0L10 5Z" fill="#ff3352"/></g><rect x="640.5" y="160.125" width="53.375" height="53.375" fill="#ffffff"/><circle cx="653.845" cy="173.475" r="13.345" fill="#c9f33f"/><g transform="translate(667.19,160.13) scale(1.3345) rotate(0)"><path d="M10 5L5 0L0 5L5 10L0 15L5 20L10 15L15 20L20 15L15 10L20 5L15 0L10 5Z" fill="#8a4ce6"/></g><path d="M 640.5 213.5 A 26.69 26.69 0 0 1  667.19 186.81 L 640.5 213.5 A 26.69 26.69 0 0 0 667.19 186.81" fill="#1c58fd"/><g transform="translate(667.19,186.81) scale(1.3345) rotate(0)"><path d="M10 5L5 0L0 5L5 10L0 15L5 20L10 15L15 20L20 15L15 10L20 5L15 0L10 5Z" fill="#c9f33f"/></g><circle cx="720.57" cy="186.82" r="26.69" fill="#ff3352"/><circle cx="26.69" cy="240.19" r="26.69" fill="#ff3352"/><path d="M 53.38 266.88 A 53.38 53.38 0 0 1  106.76 213.5 L 53.38 266.88 A 53.38 53.38 0 0 0 106.76 213.5" fill="#ff3352"/><path d="M 106.75 266.88 A 53.38 53.38 0 0 1  160.13 213.5 L 160.13 266.88L106.75 266.88" fill="#c9f33f"/><path d="M 160.13 213.5 A 53.38 53.38 0 0 0 213.51 266.88 L 213.51 213.5L160.13 213.5" fill="#8a4ce6"/><path d="M 213.5 266.88 A 53.38 53.38 0 0 1  266.88 213.5 L 266.88 266.88L213.5 266.88" fill="#c9f33f"/><g transform="translate(266.88,213.5) scale(2.669) rotate(0)"><path d="M10 5L5 0L0 5L5 10L0 15L5 20L10 15L15 20L20 15L15 10L20 5L15 0L10 5Z" fill="#ff3352"/></g><rect x="320.25" y="213.5" width="53.375" height="53.375" fill="#ffffff"/><circle cx="333.595" cy="226.845" r="13.345" fill="#c9f33f"/><g transform="translate(346.94,213.5) scale(1.3345) rotate(0)"><path d="M10 5L5 0L0 5L5 10L0 15L5 20L10 15L15 20L20 15L15 10L20 5L15 0L10 5Z" fill="#c9f33f"/></g><path d="M 320.25 266.88 A 26.69 26.69 0 0 0 346.94 240.19 L 320.25 240.19L320.25 266.88" fill="#1c58fd"/><path d="M 346.94 266.88 A 26.69 26.69 0 0 1  373.63 240.19 L 373.63 266.88L346.94 266.88" fill="#8a4ce6"/><path d="M 373.63 266.88 A 53.38 53.38 0 0 1  427.01 213.5 L 427.01 266.88L373.63 266.88" fill="#c9f33f"/><path d="M 427 266.88 A 53.38 53.38 0 0 1  480.38 213.5 L 427 266.88 A 53.38 53.38 0 0 0 480.38 213.5" fill="#1c58fd"/><rect x="480.375" y="213.5" width="53.375" height="53.375" fill="#ffffff"/><circle cx="493.725" cy="226.845" r="13.345" fill="#ff3352"/><path d="M 507.06 240.19 A 26.69 26.69 0 0 1  533.75 213.5 L 533.75 240.19L507.06 240.19" fill="#8a4ce6"/><g transform="translate(480.38,240.19) scale(1.3345) rotate(0)"><path d="M10 5L5 0L0 5L5 10L0 15L5 20L10 15L15 20L20 15L15 10L20 5L15 0L10 5Z" fill="#1c58fd"/></g><path d="M 507.06 266.88 A 26.69 26.69 0 0 1  533.75 240.19 L 533.75 266.88L507.06 266.88" fill="#8a4ce6"/><circle cx="560.44" cy="240.19" r="26.69" fill="#1c58fd"/><g transform="translate(587.13,213.5) scale(2.669) rotate(0)"><path d="M10 5L5 0L0 5L5 10L0 15L5 20L10 15L15 20L20 15L15 10L20 5L15 0L10 5Z" fill="#1c58fd"/></g><circle cx="667.19" cy="240.19" r="26.69" fill="#1c58fd"/><rect x="693.875" y="213.5" width="53.375" height="53.375" fill="#ffffff"/><circle cx="707.225" cy="226.845" r="13.345" fill="#8a4ce6"/><g transform="translate(720.56,213.5) scale(1.3345) rotate(0)"><path d="M10 5L5 0L0 5L5 10L0 15L5 20L10 15L15 20L20 15L15 10L20 5L15 0L10 5Z" fill="#1c58fd"/></g><circle cx="707.225" cy="253.535" r="13.345" fill="#1c58fd"/><path d="M 720.56 266.88 A 26.69 26.69 0 0 1  747.25 240.19 L 747.25 266.88L720.56 266.88" fill="#1c58fd"/><rect x="0" y="266.875" width="53.375" height="53.375" fill="#ffffff"/><circle cx="13.345" cy="280.225" r="13.345" fill="#c9f33f"/><g transform="translate(26.69,266.88) scale(1.3345) rotate(0)"><path d="M10 5L5 0L0 5L5 10L0 15L5 20L10 15L15 20L20 15L15 10L20 5L15 0L10 5Z" fill="#c9f33f"/></g><circle cx="13.345" cy="306.90500000000003" r="13.345" fill="#ff3352"/><path d="M 26.69 293.56 A 26.69 26.69 0 0 0 53.38 320.25 L 53.38 293.56L26.69 293.56" fill="#1c58fd"/><g transform="translate(53.38,266.88) scale(2.669) rotate(0)"><path d="M10 5L5 0L0 5L5 10L0 15L5 20L10 15L15 20L20 15L15 10L20 5L15 0L10 5Z" fill="#c9f33f"/></g><circle cx="133.44" cy="293.57" r="26.69" fill="#c9f33f"/><rect x="160.125" y="266.875" width="53.375" height="53.375" fill="#ffffff"/><circle cx="173.475" cy="280.225" r="13.345" fill="#8a4ce6"/><circle cx="200.155" cy="280.225" r="13.345" fill="#ff3352"/><path d="M 160.13 320.25 A 26.69 26.69 0 0 1  186.82 293.56 L 160.13 320.25 A 26.69 26.69 0 0 0 186.82 293.56" fill="#1c58fd"/><path d="M 186.81 320.25 A 26.69 26.69 0 0 0 213.5 293.56 L 186.81 293.56L186.81 320.25" fill="#8a4ce6"/><circle cx="240.19" cy="293.57" r="26.69" fill="#8a4ce6"/><path d="M 266.88 320.26 A 53.38 53.38 0 0 1  320.26 266.88 L 266.88 320.26 A 53.38 53.38 0 0 0 320.26 266.88" fill="#8a4ce6"/><circle cx="346.94" cy="293.57" r="26.69" fill="#ff3352"/><circle cx="400.32" cy="293.57" r="26.69" fill="#ff3352"/><rect x="427" y="266.875" width="53.375" height="53.375" fill="#ffffff"/><circle cx="440.345" cy="280.225" r="13.345" fill="#ff3352"/><g transform="translate(453.69,266.88) scale(1.3345) rotate(0)"><path d="M10 5L5 0L0 5L5 10L0 15L5 20L10 15L15 20L20 15L15 10L20 5L15 0L10 5Z" fill="#1c58fd"/></g><circle cx="440.345" cy="306.90500000000003" r="13.345" fill="#ff3352"/><path d="M 453.69 320.25 A 26.69 26.69 0 0 1  480.38 293.56 L 453.69 320.25 A 26.69 26.69 0 0 0 480.38 293.56" fill="#1c58fd"/><rect x="480.375" y="266.875" width="53.375" height="53.375" fill="#ffffff"/><circle cx="493.725" cy="280.225" r="13.345" fill="#c9f33f"/><g transform="translate(507.06,266.88) scale(1.3345) rotate(0)"><path d="M10 5L5 0L0 5L5 10L0 15L5 20L10 15L15 20L20 15L15 10L20 5L15 0L10 5Z" fill="#c9f33f"/></g><circle cx="493.725" cy="306.90500000000003" r="13.345" fill="#ff3352"/><g transform="translate(507.06,293.56) scale(1.3345) rotate(0)"><path d="M10 5L5 0L0 5L5 10L0 15L5 20L10 15L15 20L20 15L15 10L20 5L15 0L10 5Z" fill="#8a4ce6"/></g><circle cx="560.44" cy="293.57" r="26.69" fill="#8a4ce6"/><path d="M 587.13 266.88 A 53.38 53.38 0 0 1  640.51 320.26 L 587.13 266.88 A 53.38 53.38 0 0 0 640.51 320.26" fill="#8a4ce6"/><circle cx="667.19" cy="293.57" r="26.69" fill="#c9f33f"/><rect x="693.875" y="266.875" width="53.375" height="53.375" fill="#ffffff"/><g transform="translate(693.88,266.88) scale(1.3345) rotate(0)"><path d="M10 5L5 0L0 5L5 10L0 15L5 20L10 15L15 20L20 15L15 10L20 5L15 0L10 5Z" fill="#c9f33f"/></g><g transform="translate(720.56,266.88) scale(1.3345) rotate(0)"><path d="M10 5L5 0L0 5L5 10L0 15L5 20L10 15L15 20L20 15L15 10L20 5L15 0L10 5Z" fill="#ff3352"/></g><g transform="translate(693.88,293.56) scale(1.3345) rotate(0)"><path d="M10 5L5 0L0 5L5 10L0 15L5 20L10 15L15 20L20 15L15 10L20 5L15 0L10 5Z" fill="#ff3352"/></g><g transform="translate(720.56,293.56) scale(1.3345) rotate(0)"><path d="M10 5L5 0L0 5L5 10L0 15L5 20L10 15L15 20L20 15L15 10L20 5L15 0L10 5Z" fill="#8a4ce6"/></g><circle cx="26.69" cy="346.94" r="26.69" fill="#c9f33f"/><g transform="translate(53.38,320.25) scale(2.669) rotate(0)"><path d="M10 5L5 0L0 5L5 10L0 15L5 20L10 15L15 20L20 15L15 10L20 5L15 0L10 5Z" fill="#8a4ce6"/></g><path d="M 106.75 320.25 A 53.38 53.38 0 0 1  160.13 373.63 L 106.75 320.25 A 53.38 53.38 0 0 0 160.13 373.63" fill="#ff3352"/><circle cx="186.82" cy="346.94" r="26.69" fill="#1c58fd"/><path d="M 213.5 373.63 A 53.38 53.38 0 0 0 266.88 320.25 L 213.5 320.25L213.5 373.63" fill="#c9f33f"/><g transform="translate(266.88,320.25) scale(2.669) rotate(0)"><path d="M10 5L5 0L0 5L5 10L0 15L5 20L10 15L15 20L20 15L15 10L20 5L15 0L10 5Z" fill="#c9f33f"/></g><g transform="translate(320.25,320.25) scale(2.669) rotate(0)"><path d="M10 5L5 0L0 5L5 10L0 15L5 20L10 15L15 20L20 15L15 10L20 5L15 0L10 5Z" fill="#c9f33f"/></g><g transform="translate(373.63,320.25) scale(2.669) rotate(0)"><path d="M10 5L5 0L0 5L5 10L0 15L5 20L10 15L15 20L20 15L15 10L20 5L15 0L10 5Z" fill="#ff3352"/></g><g transform="translate(427,320.25) scale(2.669) rotate(0)"><path d="M10 5L5 0L0 5L5 10L0 15L5 20L10 15L15 20L20 15L15 10L20 5L15 0L10 5Z" fill="#1c58fd"/></g><path d="M 480.38 373.63 A 53.38 53.38 0 0 1  533.76 320.25 L 480.38 373.63 A 53.38 53.38 0 0 0 533.76 320.25" fill="#c9f33f"/><circle cx="560.44" cy="346.94" r="26.69" fill="#1c58fd"/><rect x="587.125" y="320.25" width="53.375" height="53.375" fill="#ffffff"/><g transform="translate(587.13,320.25) scale(1.3345) rotate(0)"><path d="M10 5L5 0L0 5L5 10L0 15L5 20L10 15L15 20L20 15L15 10L20 5L15 0L10 5Z" fill="#1c58fd"/></g><g transform="translate(613.81,320.25) scale(1.3345) rotate(0)"><path d="M10 5L5 0L0 5L5 10L0 15L5 20L10 15L15 20L20 15L15 10L20 5L15 0L10 5Z" fill="#c9f33f"/></g><circle cx="600.475" cy="360.285" r="13.345" fill="#ff3352"/><path d="M 613.81 373.63 A 26.69 26.69 0 0 0 640.5 346.94 L 613.81 346.94L613.81 373.63" fill="#c9f33f"/><circle cx="667.19" cy="346.94" r="26.69" fill="#1c58fd"/><circle cx="720.57" cy="346.94" r="26.69" fill="#ff3352"/><rect x="0" y="373.625" width="53.375" height="53.375" fill="#ffffff"/><circle cx="13.345" cy="386.975" r="13.345" fill="#ff3352"/><path d="M 26.69 373.63 A 26.69 26.69 0 0 1  53.38 400.32 L 26.69 373.63 A 26.69 26.69 0 0 0 53.38 400.32" fill="#8a4ce6"/><circle cx="13.345" cy="413.65500000000003" r="13.345" fill="#c9f33f"/><path d="M 26.69 427 A 26.69 26.69 0 0 1  53.38 400.31 L 26.69 427 A 26.69 26.69 0 0 0 53.38 400.31" fill="#8a4ce6"/><circle cx="80.07000000000001" cy="400.32" r="26.69" fill="#ff3352"/><circle cx="133.44" cy="400.32" r="26.69" fill="#1c58fd"/><rect x="160.125" y="373.625" width="53.375" height="53.375" fill="#ffffff"/><path d="M 160.13 373.63 A 26.69 26.69 0 0 0 186.82 400.32 L 186.82 373.63L160.13 373.63" fill="#8a4ce6"/><path d="M 186.81 373.63 A 26.69 26.69 0 0 0 213.5 400.32 L 213.5 373.63L186.81 373.63" fill="#ff3352"/><path d="M 160.13 400.31 A 26.69 26.69 0 0 1  186.82 427 L 160.13 400.31 A 26.69 26.69 0 0 0 186.82 427" fill="#c9f33f"/><path d="M 186.81 427 A 26.69 26.69 0 0 0 213.5 400.31 L 186.81 400.31L186.81 427" fill="#ff3352"/><path d="M 213.5 427.01 A 53.38 53.38 0 0 1  266.88 373.63 L 213.5 427.01 A 53.38 53.38 0 0 0 266.88 373.63" fill="#8a4ce6"/><rect x="266.875" y="373.625" width="53.375" height="53.375" fill="#ffffff"/><g transform="translate(266.88,373.63) scale(1.3345) rotate(0)"><path d="M10 5L5 0L0 5L5 10L0 15L5 20L10 15L15 20L20 15L15 10L20 5L15 0L10 5Z" fill="#ff3352"/></g><path d="M 293.56 373.63 A 26.69 26.69 0 0 1  320.25 400.32 L 293.56 373.63 A 26.69 26.69 0 0 0 320.25 400.32" fill="#ff3352"/><circle cx="280.225" cy="413.65500000000003" r="13.345" fill="#c9f33f"/><path d="M 293.56 400.31 A 26.69 26.69 0 0 1  320.25 427 L 293.56 400.31 A 26.69 26.69 0 0 0 320.25 427" fill="#8a4ce6"/><circle cx="346.94" cy="400.32" r="26.69" fill="#c9f33f"/><circle cx="400.32" cy="400.32" r="26.69" fill="#1c58fd"/><rect x="427" y="373.625" width="53.375" height="53.375" fill="#ffffff"/><g transform="translate(427,373.63) scale(1.3345) rotate(0)"><path d="M10 5L5 0L0 5L5 10L0 15L5 20L10 15L15 20L20 15L15 10L20 5L15 0L10 5Z" fill="#1c58fd"/></g><g transform="translate(453.69,373.63) scale(1.3345) rotate(0)"><path d="M10 5L5 0L0 5L5 10L0 15L5 20L10 15L15 20L20 15L15 10L20 5L15 0L10 5Z" fill="#c9f33f"/></g><g transform="translate(427,400.31) scale(1.3345) rotate(0)"><path d="M10 5L5 0L0 5L5 10L0 15L5 20L10 15L15 20L20 15L15 10L20 5L15 0L10 5Z" fill="#1c58fd"/></g><path d="M 453.69 427 A 26.69 26.69 0 0 0 480.38 400.31 L 453.69 400.31L453.69 427" fill="#c9f33f"/><path d="M 480.38 373.63 A 53.38 53.38 0 0 1 533.76 427.01 L 480.38 427.01L480.38 373.63" fill="#c9f33f"/><path d="M 533.75 373.63 A 53.38 53.38 0 0 0 587.13 427.01 L 587.13 373.63L533.75 373.63" fill="#c9f33f"/><path d="M 587.13 373.63 A 53.38 53.38 0 0 1  640.51 427.01 L 587.13 373.63 A 53.38 53.38 0 0 0 640.51 427.01" fill="#ff3352"/><rect x="640.5" y="373.625" width="53.375" height="53.375" fill="#ffffff"/><g transform="translate(640.5,373.63) scale(1.3345) rotate(0)"><path d="M10 5L5 0L0 5L5 10L0 15L5 20L10 15L15 20L20 15L15 10L20 5L15 0L10 5Z" fill="#c9f33f"/></g><g transform="translate(667.19,373.63) scale(1.3345) rotate(0)"><path d="M10 5L5 0L0 5L5 10L0 15L5 20L10 15L15 20L20 15L15 10L20 5L15 0L10 5Z" fill="#1c58fd"/></g><circle cx="653.845" cy="413.65500000000003" r="13.345" fill="#1c58fd"/><circle cx="680.5350000000001" cy="413.65500000000003" r="13.345" fill="#ff3352"/><rect x="693.875" y="373.625" width="53.375" height="53.375" fill="#ffffff"/><circle cx="707.225" cy="386.975" r="13.345" fill="#ff3352"/><path d="M 720.56 400.32 A 26.69 26.69 0 0 0 747.25 373.63 L 720.56 373.63L720.56 400.32" fill="#c9f33f"/><circle cx="707.225" cy="413.65500000000003" r="13.345" fill="#8a4ce6"/><circle cx="733.905" cy="413.65500000000003" r="13.345" fill="#c9f33f"/></g></svg>