<?xml version="1.0" encoding="utf-8"?>
<!-- Generator: Adobe Adobe Illustrator 24.2.0, SVG Export Plug-In . SVG Version: 6.00 Build 0)  -->
<svg version="1.1" data-id="Layer_1" xmlns="http://www.w3.org/2000/svg" xmlns:xlink="http://www.w3.org/1999/xlink" x="0px" y="0px"
	 width="1920px" height="1080px" viewBox="0 0 1920 1080" style="enable-background:new 0 0 1920 1080;" xml:space="preserve">
<style type="text/css">
	.st0{fill:#280454;}
	.st1{fill:#270454;}
	.st2{fill:#290555;}
	.st3{fill:#2B0755;}
	.st4{fill:#250354;}
	.st5{fill:#280555;}
	.st6{fill:#DA1154;}
	.st7{fill:#FD1F54;}
	.st8{fill:#FC216D;}
	.st9{fill:#DE126D;}
	.st10{fill:#FC1F54;}
	.st11{fill:#DB1154;}
	.st12{fill:#DF126D;}
	.st13{fill:#FB216D;}
	.st14{fill:#D51254;}
	.st15{fill:#DD126C;}
	.st16{fill:#DC126C;}
	.st17{fill:#DB1254;}
	.st18{fill:#FA206C;}
	.st19{fill:#DD126D;}
	.st20{fill:#FE1F54;}
	.st21{fill:#FD216D;}
	.st22{fill:#260354;}
</style>
<path class="st0" d="M1861.58,495.46c-27.78-5.58-55.25-11.33-86.07-15.94c-0.1,1.25,0.16,1.99-0.82,17.7
	c5.85,0.88,11.7,1.79,17.53,2.79c17.23,2.77,34.36,6.1,51.4,9.87c8.05,1.75,16.1,3.5,24.14,5.27c0.01,0.04,0.01,0.07,0.02,0.1
	c0.17,0.03,0.33,0.07,0.5,0.1c3.78-10.8,7.57-21.6,11.35-32.41c0-0.04,0-0.07,0-0.11c0.22-1.21,0.41-2.43,0.52-3.66
	c0.13-4.15,0.34-8.4-0.51-12.49c-0.13-0.36-0.27-0.38-0.4-0.1c0.67-2.05,1.32-4.11,1.93-6.18c0.98-3.85,2.51-7.62,2.64-11.63
	c0.01-0.45,0.03-0.91,0.05-1.37c3.98-13.94,7.71-27.95,10.66-42.15c0.65-1.16,0.54-20.28-0.86-14.68
	c-8.4,40.72-22.45,78.6-22.73,79.07c-0.06,0.11-1.16,3.09-1.85,4.96"/>
<g>
	<g>
		<g>
			<path class="st1" d="M974.28,594.88c-0.58-2.24-1.89-8.48-1.89-8.48s-43.34,10.48-63.46,15.16
				c-5.3-23.59-10.55-46.94-15.88-70.65c9.3-2.06,18.24-4.06,27.19-6.02c28.05-6.14,56.1-12.25,84.14-18.42
				c2.1-0.46,2.99-0.58,3.77,2.15c3.96,13.79,8.43,27.43,12.59,41.16c2.32,7.67,4.32,15.44,6.61,23.12
				c2.63,8.82,5.5,17.57,8.14,26.39c5.23,17.5,10.36,35.03,15.56,52.54c3.03,10.21,6.16,20.39,9.17,30.61
				c0.39,1.33,0.38,2.79,0.58,4.44c-8.76,1.58-17.19,3.27-25.67,4.61c-49.09,7.74-98.19,15.4-147.29,23.06
				c-7.14,1.11-24.97,4.06-24.97,4.06s-4.74-18.48-6.82-25.8c-3.23-11.41-6.41-22.83-9.63-34.24c-4.28-15.14-8.59-30.26-12.85-45.4
				c-3.71-13.19-7.32-26.41-11.06-39.6c-3.32-11.71-6.82-23.36-10.16-35.06c-4.15-14.55-8.24-29.13-12.31-43.7
				c-4.09-14.64-8.05-29.32-12.2-43.95c-3.28-11.55-6.84-23.01-10.14-34.56c-1.33-4.65-2.29-9.41-3.43-14.14
				c65.29-14.52,130.35-28.98,195.54-43.48c8.08,34.28,16.03,68.07,24.15,102.53c-20.16,4.49-40.2,8.95-60.6,13.49
				c-1.14-4.52-2.21-8.83-3.31-13.12c-1.36-5.31-2.77-10.61-4.1-15.93c-0.64-2.54-1.85-2.98-4.48-2.34
				c-11.54,2.83-23.13,5.42-34.74,7.97c-9.44,2.07-18.92,3.97-28.73,6.02c15.76,59.16,31.46,118.09,47.34,177.71
				c24.76-5.18,49.44-10.34,74.56-15.59C978.02,611.28,976.17,603.21,974.28,594.88z"/>
			<path class="st1" d="M280.54,600.14c0.7,38.52,1.4,76.75,2.1,115.3c-9.1,0.67-17.54,1.26-25.98,1.91
				c-9.29,0.71-18.58,1.52-27.87,2.2c-5.27,0.39-10.56,0.53-15.83,0.9c-10.64,0.75-21.27,1.58-31.91,2.36
				c-9.19,0.68-18.38,1.29-27.57,2.01c-9.18,0.72-18.35,1.6-27.54,2.31c-9.5,0.74-19,1.35-28.51,2.03
				c-10.74,0.76-21.47,1.54-32.21,2.31c-7.92,0.57-15.84,1.13-24.52,1.75c2.75-7.85,5.08-15,7.74-22.04
				c8.93-23.63,17.97-47.22,26.96-70.82c1.03-2.71,1.91-5.49,3.19-8.07c0.49-0.98,1.82-1.93,2.92-2.18
				c11.61-2.54,23.24-4.99,34.89-7.35c29.19-5.91,58.39-11.77,87.58-17.65c1.91-0.38,3.81-0.8,5.77-1.22
				c0.69-10.46,1.39-20.86,2.12-31.89c-46.81,11.94-93.26,23.79-140.01,35.71c-0.25-4.59-0.55-8.59-0.66-12.6
				c-1.02-36.07-2.02-72.14-2.99-108.21c-0.26-9.63-0.36-19.26-0.64-28.89c-0.05-1.92,0.58-2.96,2.3-3.85
				c57.4-29.79,114.77-59.63,172.14-89.45c0.72-0.37,1.49-0.65,2.66-1.15c0.21,1.31,0.39,2.36,0.55,3.42
				c4.65,31.82,9.24,63.65,13.99,95.46c1.19,7.95,1.37,7.75-6.18,10.3c-36.41,12.3-72.79,24.69-109.18,37.06
				c-4.11,1.39-8.2,2.81-12.11,4.15v14.2c49.08-14.12,97.68-28.11,146.48-42.15C279.01,523.89,279.77,561.87,280.54,600.14z"/>
			<path class="st2" d="M1569.87,506.43c-4.11,21.65-8.17,43.05-12.23,64.44c0.38,0.25,0.41,0.26,0.79,0.51
				c30.56-21.42,61.13-42.83,92.36-64.72c13.49,47.28,26.79,93.93,40.18,140.88c-79.8,21.22-159.4,42.39-239.6,63.72
				c23.33-86.67,46.4-172.35,69.68-258.86c-8.02,4.74-15.25,8.98-22.46,13.26c-15.97,9.47-31.92,18.96-47.89,28.43
				c-3.08,1.82-3.21,1.76-4.56-1.65c-15.63-39.63-31.25-79.26-46.88-118.89c-0.37-0.95-0.79-1.87-1.53-3.62
				c68.21-14.67,137.85-28.82,205.91-43.45c-1.2,8.5-1.49,9.22-1.49,9.22c-4.3,23.55-8.91,47.04-13.37,70.56
				C1582.48,439.56,1576.21,472.87,1569.87,506.43z"/>
			<path class="st3" d="M1212.61,688.56c-15.92-46.95-29.57-90.72-45.5-137.72c-1.98,0.97-38.31,21.52-38.31,21.52l39.49,133.07
				l-72.87,0.3l-31.94-110.67l-6.11-19.97l-46.13-149.47L1074,385.8c0,0,0.39-0.04,1.06-0.08c11.96,39.18,23.96,78.45,36.05,118.03
				c1.1-0.48,2.73-1.19,2.73-1.19l29-15.75l1.73-4.08l-34.48-104.55l-4.51-13.11c0,0,55.08-34,56.18-34.41
				c42.38,124.24,84.73,248.43,127.37,373.43c-5.74,0-15.21,0.01-15.21,0.01l-52.28,0.62
				C1221.62,704.71,1213.95,692.85,1212.61,688.56z"/>
			<path class="st0" d="M1898.21,415.76c1.21-5.25,2.44-10.5,3.66-15.75c0.45-2.14,0.9-4.28,1.36-6.42c0.08-0.4,0.16-0.82,0.24-1.21
				c-1.36-0.84-4.61-3.34-6.16-4.23c-32.21-18.56-76.92-34.2-112.61-44.42c-31.22-8.94-65.38-13.05-97.98-13.4
				c-15.84-0.17-31.69,1.12-47.54,1.8l-6.8,0.67c-2.16,0.49-4.33,0.99-6.49,1.49c-0.21,6.88-0.42,13.76-0.63,20.63
				c-0.03,17.88-0.04,36.68,0,54.47c0,0.28-0.02,3.89-0.03,8.85c0.24,10.68,0.48,21.37,0.72,32.05c20.24-2.59,45.73-2.16,59.51-2.16
				c16.32,0,41.96,2.62,41.96,2.62s-9.43,149.71-14.94,247.66c26.52-3.81,69.94-9.67,69.94-9.67c0.75-28.09,2.11-70.83,2.91-98.92
				c1.08-37.83,2.18-75.67,3.18-113.5c0,0,0.57-19.95,0.77-20.17c0.09-0.1,19.6,4.01,35.63,9.47c16.31,5.55,37.99,12.49,53.51,20.68
				c0.28-0.8,0.56-1.59,0.84-2.39c5.61-17.1,13.3-45.03,18.83-67.7C1898.16,416.06,1898.18,415.9,1898.21,415.76z"/>
			<path class="st1" d="M679.9,658.49c-4.49,12.36-8.85,24.52-13.33,36.64c-0.36,0.97-1.41,2.11-2.36,2.39
				c-26.24,7.71-52.51,15.31-78.78,22.92c-0.66,0.19-1.37,0.24-2.1,0.37c1.34-7.1,135.84-347.81,143.05-360.55
				c34.58,117.54,69.16,235.08,103.88,353.1c-6.16-0.8-11.68-1.33-17.13-2.26c-15.31-2.6-30.6-5.35-45.89-8.06
				c-7.04-1.25-14.06-2.63-21.12-3.81c-2.02-0.34-2.55-1.53-3.05-3.23c-9.05-30.52-18.16-61.01-27.26-91.51
				c-2.1-7.04-4.23-14.07-6.54-21.75C699.38,608.27,689.69,633.27,679.9,658.49z"/>
			<path class="st4" d="M1467.01,597.54c-3.96-8.47-7.84-16.97-11.74-25.47c-19.31-42.06-38.62-84.12-57.93-126.17
				c-14.81-32.25-29.6-64.5-44.44-96.73c-3.4-7.38-6.95-14.69-10.53-22.23c-8.07,3.26-15.92,6.42-23.76,9.59
				c-21.51,8.71-43.03,17.42-64.54,26.14c-13.67,5.54-27.34,11.07-41.25,16.64c-2.87,1.14-5.5,2.23-7.59,3.11
				c37.72,111.51,75.31,222.64,112.97,334.01c1.2-0.89,2.04-1.49,2.85-2.12c11.52-8.94,23.03-17.89,34.57-26.82
				c36.72-28.41,73.43-56.84,110.23-85.15C1467.91,600.75,1467.96,599.57,1467.01,597.54z M1348.91,592.11l-57.76-153.55l22.96-9.3
				l65.32,139.88L1348.91,592.11z"/>
			<path class="st1" d="M479.36,632.51c-24.32-72.95-48.6-145.91-72.92-218.86c-4.78-14.33-9.73-28.61-14.6-42.91
				c-0.53-1.54-1-2.73-3.21-2.36c-7.03,1.18-14.11,2.03-21.15,3.15c-29.78,4.7-59.56,9.44-89.33,14.26
				c-0.99,0.16-1.75,1.11-1.69,2.11c0.3,4.73,0.7,9.46,1.34,14.16c3.48,25.56,6.99,51.11,10.58,76.65
				c3.81,27.08,7.72,54.14,11.65,81.48c1.77,12.27,3.5,24.26,5.21,36.26c3.43,24,6.9,47.98,10.25,71.99
				c1.92,13.74,3.62,27.51,5.46,41.26c0.45,3.34,1.06,6.66,1.74,10.9c55.25-21.73,109.97-43.26,164.8-64.83
				C484.65,647.67,481.9,640.13,479.36,632.51z M370.42,612.9c0.34-0.2-29.66-160.5-29.66-160.5l17.21-6.18l40.8,139.97
				c0.17-0.07,0.33-0.15,0.49-0.22v0.1c0.04,0.4,0.37,2.01,0.52,3.59l2.69,9.23L370.42,612.9z"/>
			<path class="st5" d="M414.43,363.04c2.15,6.34,3.97,11.69,5.87,17.28c5.32,15.63,10.58,31.02,15.78,46.44
				c24.34,72.17,48.64,144.34,72.99,216.5c8.35,24.73,16.82,49.42,25.24,74.13c0.95,2.79,2.52,3.28,4.32,1.25
				c0.6-0.68,0.96-1.59,1.35-2.44c2.05-4.53,4.07-9.07,6.12-13.6c19.23-42.6,38.54-85.17,57.69-127.81
				c21.53-47.93,42.94-95.92,64.39-143.89c0.91-2.03,1.63-4.14,2.45-6.24C585.26,404.13,500.29,383.69,414.43,363.04z M543.59,540
				l-23.44-76.06l56.14,13.56L543.59,540z"/>
			<path class="st5" d="M1053.06,387.76c-15.02,9.58-29.85,19.03-45.21,28.82c-3.35-11.46-6.57-22.49-9.79-33.54
				c20.74-13.03,41.35-25.98,62.33-39.16c1.88,5.55,3.58,10.38,5.15,15.25c1.52,4.72,2.89,9.49,4.36,14.22
				c0.69,2.21,0.82,2.75,0.82,2.75S1058.13,384.51,1053.06,387.76z"/>
			<path class="st6" d="M1006.25,547.25c0.9,2.28,1.61,4.39,2.35,6.73c0.57,2.45,0.93,4.71,0.88,6.97
				c-0.22,9.55,0.69,19.04,1.92,28.48c1.09,8.33,1.18,16.72,1.74,25.07c0.81,12.13,2.62,24.08,5.2,35.94
				c0.48,2.23,0.99,4.45,1.36,6.7c0.56,3.47-0.01,4.21-3.79,4.61c-11.47,1.19-22.89,2.81-34.29,4.55
				c-30.26,4.61-60.66,8.34-90.54,15.19c-5.96,1.37-11.93,2.71-17.91,4.03c-1.41,0.31-2.81,0.79-4.52,0.25
				c-1.93-5.62-3.68-11.08-5.29-16.57c-3.52-11.98-7-23.96-10.42-35.97c-3.45-12.11-6.8-24.25-10.23-36.37
				c-0.86-3.06-1.85-6.08-2.75-9.36c0.69-1,1.66-1.1,2.55-1.32c10.69-2.59,21.32-5.47,32.07-7.84c1.31-0.29,2.62-0.77,4.15,0.07
				c3.14,11.75,6.08,23.34,9.01,34.94c2.91,11.52,5.81,23.04,8.71,34.56c0.12,0.48,0.3,0.96,0.54,1.71
				c33.03-6.73,65.95-13.45,99.02-20.19c-5.43-20.83-10.8-41.47-16.31-62.6c-20.02,5.1-40.43,10.3-61.17,15.58
				c-1.12-4.54-2.2-8.92-3.29-13.55c1.35-1.38,3.11-1.28,4.69-1.67c18.43-4.5,36.87-8.96,55.27-13.54
				c8.75-2.18,17.56-4.13,26.3-6.38C1002.99,546.87,1004.51,546.38,1006.25,547.25z"/>
			<path class="st7" d="M965.13,451.98c-7.89,2.05-15.64,3.88-23.64,5.77c-3.08-11.3-6.01-22.06-8.95-32.84
				c-29.15,7.4-57.99,14.72-87.25,22.14c9.47,37.09,18.83,73.79,28.19,110.73c-0.5,1.51-1.69,1.71-2.78,1.97
				c-11.19,2.67-22.39,5.26-33.58,7.92c-0.81,0.19-1.62,0.37-2.64-0.17c-2.37-7.8-4.52-15.45-6.67-23.33
				c0.85-3.24,3.25-2.58,5.24-2.21c4.26,0.78,4.56,0.63,4.61-3.66c0.02-1.72-0.14-3.44-0.49-5.12c-2.48-11.72-5.94-23.17-9.71-34.53
				c-7-21.07-13.57-42.26-18.65-63.89c-0.21-0.91-0.44-1.81-0.64-2.73c-0.42-1.91,0.17-3.28,2.1-3.89c3.06-0.97,6.07-2.06,9.4-1.82
				c2.84,0.21,5.54-0.73,8.25-1.42c37.26-9.35,74.77-17.59,112.38-25.42c2.54-0.53,5.1-0.99,7.67-1.35
				c2.16-0.31,3.26,0.54,3.55,2.79c2.08,16.26,6.83,31.8,12.88,46.98C964.88,449.14,965.58,450.34,965.13,451.98z"/>
			<path class="st8" d="M965.24,452.21c-2.91-7.61-5.93-15.1-8.14-22.83c-2.82-9.87-4.98-19.93-7.57-30.46
				c-1.14,0.12-3.15,0.16-5.08,0.58c-18.54,3.98-37.09,7.88-55.57,12.09c-21.31,4.85-42.55,10.05-63.85,14.95
				c-4.35,1-8.85,1.35-13.28,2c-2.76,0.4-3.36,1.71-2.56,4.45c5.05,17.33,9.82,34.74,14.91,52.05c3.44,11.69,7.56,23.19,10.81,34.92
				c1.8,6.5,2.58,13.29,3.5,20c0.19,1.4-1.02,2.99-1.73,4.87c-3.12-2.36-5.74-3.3-8.73-1.1c-2.12-6.23-4.18-12.65-6.06-19.12
				c-3.82-13.16-7.53-26.35-11.29-39.53c-3.72-13.01-7.47-26.02-11.17-39.04c-2.6-9.13-5-18.33-7.81-27.39
				c-0.77-2.49,0.22-3.32,2.03-3.84c4.92-1.42,9.85-2.81,14.84-3.96c21.43-4.94,42.87-9.79,64.31-14.66
				c14.59-3.31,29.18-6.57,43.77-9.89c10.11-2.3,20.23-4.63,30.31-7.06c2.55-0.61,5.04-1.45,7.5-2.34c3.18-1.16,4.63-0.56,5.37,2.5
				c5.6,23.24,11.2,46.48,16.93,70.27C972.97,450.51,969.23,451.36,965.24,452.21z"/>
			<path class="st9" d="M868.39,685.87c17.15-3.79,34.25-7.47,51.42-10.83c10.69-2.09,21.46-3.84,32.23-5.48
				c12.2-1.86,24.44-3.44,36.66-5.12c9.98-1.37,19.96-2.7,30.59-4.14c-0.57-2.98-1.23-6.01-1.72-9.08
				c-1.57-9.73-3.42-19.44-4.53-29.22c-1.07-9.5-0.91-19.15-2.11-28.64c-1.61-12.82-2.65-25.63-2.32-38.84
				c2.42,7.4,4.83,15.1,7.24,22.81c2.79,8.92,5.61,17.83,8.36,26.76c5.32,17.27,10.6,34.55,15.91,51.82
				c1.48,4.81,2.83,9.67,4.56,14.39c0.98,2.68,0.2,3.54-2.39,3.81c-6.46,0.67-12.93,1.29-19.34,2.25c-5.3,0.8-10.5,2.25-15.8,3.09
				c-21.57,3.41-43.18,6.65-64.75,10.04c-22.92,3.6-45.83,7.3-68.74,10.96c-0.3,0.05-0.62,0.01-1.43,0.01
				C870.97,695.74,869.67,690.93,868.39,685.87z"/>
			<path class="st10" d="M1006.47,547.19c-2.25,0.63-4.49,0.92-6.68,1.45c-21.8,5.29-43.58,10.66-65.38,15.92
				c-6.18,1.49-12.44,2.71-18.92,4.05c-0.87-2.32-1.47-4.64-2.07-7.19c1.93-2.14,4.55-2.15,6.93-2.71
				c15.31-3.66,30.66-7.16,45.95-10.9c0.88-0.22,1.74-0.5,2.57-0.87c1.66-0.74,3.7-1.4,3.56-3.61c-0.15-2.26-2.37-2.69-4.12-3.21
				c-2.71-0.79-5.54-0.64-8.34-0.65c-3.89-0.01-7.6,1.04-11.32,1.93c-11.4,2.72-22.82,5.38-34.24,8.04c-1.1,0.26-2.2,0.69-3.57,0.09
				c-0.86-2.47-1.5-4.82-2.15-7.21c30.31-6.59,60.22-13.1,90.38-19.65C1001.65,531.13,1004.07,539.04,1006.47,547.19z"/>
			<path class="st11" d="M910.63,549.68c12.83-3.26,25.7-6.19,38.53-9.3c5.65-1.37,11.31-2.31,17.09-1.55
				c2.13,0.28,4.32,1.14,6.17,2.25c1.98,1.17,2.05,3.2,0.19,4.55c-1.87,1.36-4.1,2.47-6.34,3.02c-17.43,4.26-34.9,8.36-52.59,12.53
				C912.51,557.44,911.58,553.68,910.63,549.68z"/>
			<path class="st11" d="M834.3,567.59c12.9-3.28,25.81-6.33,38.96-9.47c1.26,3.68,2.3,7.45,3.32,11.48
				c-1.53,2.15-3.87,2.09-5.92,2.57c-10.76,2.53-21.53,5-32.52,7.67C836.7,575.83,835.51,571.83,834.3,567.59z"/>
			<path class="st10" d="M837.93,580.08c3.21-1.29,6.41-2.51,9.71-3.34c9.46-2.36,18.96-4.56,28.69-6.86
				c1.05,2.71,1.85,5.45,2.63,8.44c-7.04,1.8-14.06,3.33-21.07,4.92c-5.81,1.31-11.61,2.69-17.66,4.02
				C839.3,584.95,838.64,582.64,837.93,580.08z"/>
			<path class="st7" d="M218.22,557.82c-15.73,4.21-31.25,8.31-46.78,12.34c-28.67,7.44-57.34,14.84-86.02,22.26
				c-0.49,0.13-0.98,0.25-1.75,0.45c-0.24-3.44-0.57-6.69-0.69-9.94c-0.72-19.45-1.34-38.91-2.1-58.36
				c-0.47-12-1.14-23.99-1.66-35.98c-0.08-1.74,0.17-3.5,0.31-5.5c0.38-1.47,1.41-2,2.36-2.63c8.81-5.88,18.09-10.95,27.47-15.84
				c27.42-14.29,55.57-27,84.24-38.58c7.79-3.14,15.54-6.37,23.37-9.43c3.62-1.41,4.05-1.06,4.39,2.74
				c1.2,13.68,4.18,26.99,8.51,40.02c0.54,1.63,1.56,3.21,0.81,5.29c-13.46,5.05-26.78,9.91-40.13,14.71
				c-22.03,7.94-44.07,15.83-66.1,23.76c-5.9,2.12-5.97,2.15-6.03,8.37c-0.09,9.84-0.07,19.68-0.08,29.53c0,0.8,0.13,1.6,0.25,2.9
				c49.33-13.14,98.38-26.22,147.75-39.37c0.21,13.03,0.42,25.82,0.54,38.86c-1.06,1.49-2.57,1.66-3.93,2.05
				c-12.22,3.51-24.5,6.8-36.72,10.33C223.66,556.54,220.94,556.68,218.22,557.82z"/>
			<path class="st11" d="M98.23,639.2c9.3-2.08,18.38-4.03,27.5-5.84c21.68-4.3,43.37-8.53,65.06-12.79
				c9.42-1.85,18.83-3.71,28.67-5.64c0.78-12.14,1.56-24.28,2.38-36.7c0.75-0.99,1.7-1.04,2.61-1.21
				c12.5-2.29,25.02-4.53,37.43-7.28c1.58-0.35,3.2-0.97,5.07-0.06c0.47,13.1,0.78,26.04,0.99,38.97
				c0.41,25.88,0.77,51.76,1.11,77.93c-2.24,1.78-4.86,1.57-7.25,1.69c-17.91,0.88-35.69,3.41-53.58,4.33
				c-15.63,0.81-31.18,2.42-46.79,3.42c-20.99,1.34-41.95,3.21-62.78,6.28c-4.63,0.68-9.31,0.39-13.95,0.91
				c-3.2,0.36-4.2-0.99-3.47-4.14c4.23-18.26,8.24-36.59,14.23-54.39C96.08,642.82,96.74,640.95,98.23,639.2z"/>
			<path class="st8" d="M230.8,464.83c-2.09-6.41-4.22-12.79-5.72-19.31c-1.61-7-2.68-14.13-3.9-21.22
				c-0.43-2.52-0.61-5.09-0.96-8.08c-4.73,1.87-9.42,3.61-14.01,5.57c-21.1,9.03-42.33,17.8-63.23,27.28
				c-21.69,9.84-43,20.48-63.19,33.66c-0.35-5.07-0.55-10.23-0.55-15.39c0-0.65,0.86-1.57,1.55-1.93
				c49.79-26,99.59-51.96,149.4-77.92c0.9-0.47,1.83-0.89,3.04-1.48c0.97,5.61,1.93,10.92,2.8,16.25
				c2.62,16.13,5.21,32.26,7.81,48.39c0.16,1.02,0.3,2.05,0.42,3.07c0.78,6.24,0.78,6.26-4.97,8.32
				C236.56,463.01,233.79,463.88,230.8,464.83z"/>
			<path class="st12" d="M98.17,638.98c-1.16,4.32-2.8,8.56-3.95,12.93c-3.88,14.75-7.59,29.55-11.36,44.33
				c-0.48,1.87-0.88,3.75-1.49,6.34c2.75-0.29,4.94-0.55,7.14-0.76c9.03-0.85,18.05-1.69,27.08-2.53
				c11.28-1.04,22.56-2.14,33.85-3.1c8.42-0.72,16.87-1.19,25.29-1.89c8.72-0.73,17.43-1.63,26.16-2.39
				c3.7-0.32,7.42-0.4,11.13-0.71c9.24-0.78,18.47-1.69,27.71-2.43c6.79-0.54,13.59-0.86,20.39-1.3c2.78-0.18,5.55-0.41,8.6-0.61
				c0.27,4.63,0.27,9.26,0.27,14.27c-69.37,5.2-138.59,10.39-208.32,15.62c2.2-6.28,4.19-12.02,6.22-17.75
				c6.46-18.13,13.01-36.22,19.33-54.39c1.03-2.96,2.42-4.47,5.61-4.57C93.86,639.98,95.88,639.33,98.17,638.98z"/>
			<path class="st6" d="M218.26,557.98c0.66-0.55,1.51-1.28,2.49-1.55c15.2-4.28,30.42-8.49,45.85-12.75
				c0.36,6.04,0.5,12.1,0.61,18.45c-0.43,0.65-0.88,0.9-1.4,1c-13.56,2.52-26.93,5.92-40.42,8.76c-0.81,0.17-1.62,0.38-2.68,0.01
				c-0.04-3.44,0.19-6.74,0.3-10.05C223.16,557.4,222.81,557.14,218.26,557.98z"/>
			<path class="st7" d="M222.44,572.01c13.83-3.35,27.61-6.46,41.4-9.53c0.89-0.2,1.86-0.06,3.06-0.06c0.3,2.3,0.33,4.58,0.31,7.15
				c-7.09,1.64-14.12,3.07-21.18,4.34c-7.86,1.42-15.74,2.7-23.88,4.04C222.05,576.05,222.22,574.15,222.44,572.01z"/>
			<path class="st7" d="M1570.52,436.53c-0.05,0.63-0.09,1.09-0.22,1.77c-0.22,0.52-0.37,0.83-0.43,1.34
				c-0.03,0.44-0.04,0.72-0.13,1.19c-0.39,0.64-0.49,1.16-0.51,1.89c-0.05,0.66-0.08,1.13-0.21,1.81c-0.22,0.52-0.35,0.83-0.42,1.33
				c-0.24,1.45-0.46,2.74-0.76,4.26c-0.23,0.54-0.39,0.84-0.44,1.35c-0.04,0.63-0.08,1.09-0.2,1.77c-0.23,0.52-0.38,0.83-0.44,1.33
				c-0.05,0.63-0.08,1.1-0.21,1.78c-0.22,0.52-0.36,0.83-0.43,1.33c-0.66,3.52-1.29,6.87-2.03,10.46c-0.24,0.55-0.39,0.85-0.43,1.37
				c-0.49,2.69-0.97,5.21-1.57,7.97c-1.38,5.23-2.1,10.34-3.32,15.35c-0.41,1.68-1.13,2.78-2.62,3.56
				c-10.92,5.71-21.83,11.41-32.69,17.22c-1.05,0.56-2.13,1.36-3.61,0.75c-0.04-2.38,0.98-4.57,1.43-7.1
				c0.05-0.51,0.08-0.79,0.21-1.25c0.3-0.63,0.54-1.05,0.76-1.66c0.32-1.76,0.65-3.34,1.08-5.15c0.24-0.53,0.4-0.84,0.46-1.34
				c0.05-0.44,0.08-0.72,0.2-1.18c0.29-0.63,0.53-1.05,0.77-1.65c0.33-1.76,0.67-3.35,1.1-5.15c0.3-0.67,0.53-1.09,0.77-1.69
				c0.93-4.05,1.87-7.91,2.9-12c0.25-0.53,0.42-0.82,0.48-1.34c0.04-0.44,0.07-0.72,0.19-1.18c0.23-0.49,0.38-0.8,0.46-1.3
				c0.65-2.7,1.28-5.23,2-8c0.24-0.53,0.41-0.83,0.48-1.34c0.05-0.45,0.07-0.72,0.19-1.19c0.92-1.84,1.16-3.66,1.65-5.63
				c0.04-0.48,0.07-0.76,0.19-1.22c0.23-0.49,0.39-0.79,0.46-1.3c0.05-0.45,0.09-0.72,0.22-1.19c0.28-0.63,0.5-1.06,0.74-1.65
				c0.11-0.94,0.22-1.71,0.42-2.68c0.65-1.27,1.13-2.35,1.12-3.78c0.04-0.47,0.07-0.75,0.2-1.21c0.47-1.08,0.9-1.96,1-3.15
				c0.04-0.48,0.08-0.75,0.21-1.21c0.23-0.49,0.38-0.8,0.45-1.3c0.05-0.44,0.08-0.72,0.21-1.18c0.22-0.5,0.36-0.8,0.44-1.3
				c0.05-0.44,0.08-0.72,0.21-1.18c0.21-0.5,0.34-0.81,0.43-1.3c0.45-1.88,0.86-3.59,1.37-5.53c0.25-0.77,0.08-1.11-0.67-1.13
				c-0.37,0.16-0.58,0.25-0.95,0.38c-0.68,0.12-1.01,0.5-1.55,0.9c-0.96,0.59-1.77,1.06-2.78,1.58c-0.72,0.13-1.05,0.51-1.58,0.92
				c-13.49,7.66-26.81,15.24-40.18,22.74c-9.39,5.27-18.84,10.43-28.49,15.65c-2.11,0.24-2.28-1.38-2.78-2.5
				c-4.21-9.37-7.29-19.17-10.86-28.79c-4.94-13.31-9.04-26.91-13.49-40.39c-1.47-4.46-1.05-5.29,3.33-6.4
				c30.46-7.76,61.05-14.99,91.81-21.46c15.01-3.16,30.13-5.9,45.3-8.27c1.65-0.26,3.29-0.43,5.19,0.04
				c0.95,0.48,1.07,1.15,1.1,2.12c-0.02,0.53-0.05,0.81-0.15,1.27c-0.36,0.65-0.44,1.17-0.48,1.89c-0.04,0.47-0.07,0.75-0.18,1.21
				c-0.22,0.5-0.36,0.81-0.38,1.32c-0.02,0.44-0.05,0.72-0.15,1.18c-0.4,0.64-0.5,1.16-0.5,1.9c-0.02,0.47-0.05,0.75-0.15,1.21
				c-0.38,0.65-0.47,1.16-0.48,1.9c-0.03,0.47-0.06,0.75-0.17,1.21c-0.36,0.65-0.44,1.17-0.47,1.9c-0.25,1.48-0.49,2.77-0.83,4.28
				c-0.22,0.54-0.35,0.85-0.37,1.36c-0.06,0.63-0.11,1.09-0.26,1.76c-0.21,0.53-0.34,0.84-0.37,1.34c-0.06,0.63-0.11,1.09-0.26,1.77
				c-0.21,0.53-0.33,0.84-0.38,1.34c-0.06,0.63-0.12,1.09-0.27,1.77c-0.2,0.53-0.32,0.84-0.39,1.33c-0.26,1.45-0.5,2.74-0.84,4.26
				c-0.21,0.54-0.32,0.86-0.36,1.36c-0.26,1.65-0.52,3.14-0.87,4.86c-0.21,0.55-0.34,0.86-0.4,1.36c-0.47,2.48-0.92,4.8-1.48,7.35
				c-0.21,0.55-0.34,0.86-0.38,1.36c-0.67,3.52-1.32,6.87-2.07,10.46c-0.23,0.55-0.37,0.85-0.41,1.36c-0.05,0.63-0.1,1.09-0.23,1.77
				c-0.22,0.53-0.35,0.83-0.41,1.34c-0.05,0.63-0.09,1.09-0.22,1.77c-0.21,0.53-0.35,0.83-0.41,1.33c-0.24,1.45-0.47,2.74-0.77,4.26
				C1570.72,435.72,1570.57,436.02,1570.52,436.53z"/>
			<path class="st6" d="M1479.12,665.88c1.96-8.57,4.02-16.99,6.26-25.37c6.72-25.17,13.51-50.32,20.28-75.47
				c1.32-4.89,2.68-9.77,4.15-14.84c12.7-7.21,25.23-14.29,37.77-21.37c0.72-0.41,1.47-0.77,2.54-0.87c0.92,0.31,1,0.91,0.95,1.78
				c-0.05,0.53-0.07,0.84-0.18,1.35c-1.79,7.46-3.24,14.76-4.77,22.29c-0.07,0.74-0.1,1.23-0.24,1.95
				c-0.19,0.48-0.27,0.74-0.41,1.19c-0.07,0.5-0.07,0.8-0.18,1.31c-0.29,0.66-0.33,1.15-0.5,1.8c-0.06,0.48-0.06,0.79-0.16,1.31
				c-0.19,0.47-0.26,0.73-0.39,1.19c-0.08,0.69-0.1,1.19-0.24,1.91c-0.19,0.48-0.27,0.75-0.38,1.21c-0.07,0.69-0.1,1.19-0.24,1.9
				c-0.2,0.48-0.27,0.74-0.39,1.21c-0.08,0.7-0.11,1.19-0.26,1.91c-0.19,0.48-0.26,0.74-0.4,1.19c-0.07,0.5-0.07,0.8-0.16,1.32
				c-0.35,1.52-0.9,2.76-1.06,4.29c-0.04,0.5-0.04,0.79-0.13,1.3c-0.32,0.66-0.38,1.15-0.5,1.82c-1.33,6.65-2.65,13.11-3.87,19.59
				c-0.24,1.27-0.04,2.62-0.03,3.93c0.39,0.21,0.46,0.24,0.85,0.45c29.36-20.74,58.72-41.47,88.27-62.3c2.23,1.6,2.3,4.11,2.79,6.38
				c1.72,7.9,3.03,15.88,4.57,23.81c2.58,13.23,5.78,26.31,9.54,39.26c0.17,0.6,0.34,1.2,0.47,1.8c0.67,3.15,0.15,4.07-3.02,4.95
				c-7.39,2.07-14.83,3.96-22.22,6.03c-23.07,6.48-45.96,13.57-68.7,21.11c-21.86,7.25-43.88,13.97-65.91,20.65
				C1481.95,666.26,1480.66,666.7,1479.12,665.88z"/>
			<path class="st9" d="M1478.81,665.91c3.72-1.07,7.37-1.75,10.89-2.86c22.96-7.24,45.82-14.8,68.85-21.8
				c27.25-8.28,54.64-16.1,81.98-24.09c1.85-0.54,2.43-1.27,1.91-3.33c-3.59-14.38-7.15-28.77-10.46-43.22
				c-1.84-8.01-3.16-16.13-4.77-24.2c-0.28-1.41-0.8-2.77-1.25-4.4c5.65-4.31,11.34-8.38,17.59-12.86
				c1.71,5.71,3.25,10.71,4.72,15.73c8.16,27.94,16.31,55.88,24.43,83.83c2.12,7.31,2.58,6.19-4.56,8.1
				c-44.37,11.84-88.75,23.63-133.13,35.44c-20.03,5.33-40.06,10.68-60.09,16.02c-0.57,0.15-1.16,0.21-2.56,0.46
				C1474.55,680.87,1476.62,673.49,1478.81,665.91z"/>
			<path class="st13" d="M1585.63,360.92c-6.67,0.75-13.24,1.41-19.71,2.56c-12.66,2.27-25.29,4.69-37.89,7.28
				c-10.19,2.1-20.33,4.43-30.45,6.84c-18.65,4.44-37.26,9.07-55.92,13.48c-2.4,0.57-2.8,1.34-2.03,3.56
				c7.77,22.33,15.45,44.69,23.23,67.02c0.74,2.12,1.94,4.08,3.15,6.24c-3.33,2.37-6.89,4.6-10.93,7.14
				c-13.76-31.99-27.36-63.6-41.16-95.69c58.7-11.88,117.03-23.68,176.15-35.64c-1.23,5.91-2.32,11.21-3.52,16.75
				C1586.3,360.95,1586.07,361.07,1585.63,360.92z"/>
			<path class="st14" d="M1521.15,507.17c-0.11,2.19-0.41,4.53-0.72,7.09c5.06-2.62,10.01-5.17,14.94-7.76
				c6.73-3.54,13.48-7.04,20.11-10.75c1.14-0.64,2.35-2.21,2.71-3.47c1.35-4.73,2.33-9.57,3.63-14.47
				c-0.56,4.13-1.19,8.39-2.06,12.59c-1.89,9.16-3.89,18.3-6.03,27.6c-1.62,0.11-0.73-1.48-1.84-2.08
				c-4.41,2.08-8.77,4.67-13.22,7.05c-6.95,3.72-13.83,7.56-20.83,11.18c-1.09,0.56-2.14,1.31-3.67,1.02
				c0.86-4.51,1.84-8.9,2.94-13.27C1518.34,517.03,1519.68,512.18,1521.15,507.17z"/>
			<path class="st7" d="M1513.87,535.25c8.05-4.35,16-8.5,23.93-12.68c5.09-2.69,10.15-5.42,15.71-8.39
				c-0.11,1.61-0.18,2.65-0.11,3.84c0.12,0.43,0.1,0.72-0.02,1.2c-0.37,1.72-1.01,3.18-1.07,4.96c-0.27,1.3-0.48,2.4-0.82,3.7
				c-0.25,0.31-0.37,0.41-0.7,0.4c-12.64,6.84-25.06,13.81-37.5,20.73c-0.86,0.48-1.89,0.66-3.09,0.99
				c0.24-2.11,0.73-4.24,1.32-6.61c0.31-0.67,0.56-1.09,0.8-1.7c0.11-0.94,0.22-1.71,0.43-2.68c0.24-0.52,0.4-0.82,0.46-1.33
				C1513.4,536.82,1513.58,536.13,1513.87,535.25z"/>
			<path class="st14" d="M1546.26,553.48c0.27-2.9,0.6-5.97,1.21-8.98c0.88-4.36,1.96-8.69,3.14-13.11
				C1549.34,538.65,1547.89,545.99,1546.26,553.48z"/>
			<path class="st14" d="M1534.84,456.14c-0.22,1.69-0.61,3.53-1.2,5.43C1533.85,459.86,1534.26,458.07,1534.84,456.14z"/>
			<path class="st14" d="M1552.44,524.25c0.03-1.46,0.26-3.06,0.66-4.75C1553.07,520.98,1552.85,522.55,1552.44,524.25z"/>
			<path class="st14" d="M1541.26,577.13c0.04-1.24,0.26-2.62,0.65-4.07C1541.87,574.33,1541.65,575.66,1541.26,577.13z"/>
			<path class="st14" d="M1537.98,444.32c-0.04,1.08-0.26,2.29-0.67,3.57C1537.35,446.78,1537.58,445.62,1537.98,444.32z"/>
			<path class="st14" d="M1539.19,439.95c-0.02,0.88-0.21,1.89-0.57,2.97C1538.63,442.01,1538.83,441.05,1539.19,439.95z"/>
			<path class="st14" d="M1541.98,426.07c0.25-0.36,0.65-0.59,1.06-0.81c0.01,0.47,0.03,0.95-0.13,1.47
				C1542.55,426.59,1542.34,426.4,1541.98,426.07z"/>
			<path class="st14" d="M1583.74,374.34c-0.15-0.47-0.13-1.08,0.06-1.73C1583.96,373.11,1583.93,373.66,1583.74,374.34z"/>
			<path class="st14" d="M1550.58,528.36c0.17-0.21,0.35-0.23,0.65-0.27c0.13,0.53,0.14,1.07-0.03,1.75
				C1550.88,529.5,1550.73,529.03,1550.58,528.36z"/>
			<path class="st14" d="M1585.48,361c0.22-0.23,0.44-0.24,0.82-0.27c0.14,0.54,0.11,1.09-0.08,1.78
				C1585.86,362.16,1585.67,361.68,1585.48,361z"/>
			<path class="st14" d="M1569.4,442.79c-0.14-0.48-0.11-1.08,0.1-1.72C1569.64,441.57,1569.61,442.11,1569.4,442.79z"/>
			<path class="st14" d="M1584.37,371.23c-0.14-0.47-0.13-1.07,0.08-1.72C1584.6,370,1584.57,370.55,1584.37,371.23z"/>
			<path class="st14" d="M1540.62,580.26c-0.12-0.45-0.08-1.02,0.13-1.63C1540.86,579.1,1540.82,579.62,1540.62,580.26z"/>
			<path class="st14" d="M1585.56,365.61c-0.14-0.46-0.12-1.06,0.08-1.71C1585.79,364.39,1585.76,364.93,1585.56,365.61z"/>
			<path class="st14" d="M1583.1,377.44c-0.15-0.47-0.14-1.07,0.05-1.72C1583.3,376.22,1583.28,376.76,1583.1,377.44z"/>
			<path class="st14" d="M1544.92,559.71c-0.12-0.45-0.07-1,0.13-1.61C1545.17,558.57,1545.13,559.08,1544.92,559.71z"/>
			<path class="st14" d="M1545.58,556.64c-0.13-0.27-0.09-0.63,0.07-1.03C1545.76,555.89,1545.74,556.22,1545.58,556.64z"/>
			<path class="st14" d="M1575.63,412.94c-0.15-0.28-0.16-0.68-0.01-1.13C1575.77,412.11,1575.78,412.47,1575.63,412.94z"/>
			<path class="st14" d="M1541.16,432.48c0.13,0.29,0.11,0.69-0.06,1.13C1540.97,433.29,1540.99,432.94,1541.16,432.48z"/>
			<path class="st14" d="M1544.36,562.25c-0.13-0.27-0.1-0.64,0.05-1.05C1544.54,561.49,1544.53,561.83,1544.36,562.25z"/>
			<path class="st14" d="M1540.52,434.96c0.14,0.29,0.12,0.69-0.06,1.13C1540.33,435.78,1540.34,435.42,1540.52,434.96z"/>
			<path class="st14" d="M1543.74,565.36c-0.13-0.27-0.11-0.63,0.04-1.04C1543.9,564.6,1543.9,564.93,1543.74,565.36z"/>
			<path class="st14" d="M1571.87,430.98c-0.14-0.29-0.13-0.69,0.03-1.13C1572.04,430.16,1572.03,430.51,1571.87,430.98z"/>
			<path class="st14" d="M1570.67,436.59c-0.14-0.3-0.13-0.7,0.04-1.14C1570.86,435.77,1570.84,436.13,1570.67,436.59z"/>
			<path class="st14" d="M1543.1,568.47c-0.12-0.26-0.1-0.63,0.05-1.04C1543.28,567.71,1543.26,568.04,1543.1,568.47z"/>
			<path class="st14" d="M1539.86,437.44c0.14,0.3,0.12,0.7-0.06,1.14C1539.67,438.26,1539.69,437.9,1539.86,437.44z"/>
			<path class="st14" d="M1542.43,571.56c-0.12-0.26-0.09-0.62,0.07-1.02C1542.61,570.82,1542.6,571.15,1542.43,571.56z"/>
			<path class="st14" d="M1573.15,424.77c-0.15-0.29-0.14-0.7,0.02-1.14C1573.32,423.94,1573.31,424.3,1573.15,424.77z"/>
			<path class="st14" d="M1570.03,439.7c-0.15-0.3-0.13-0.7,0.04-1.14C1570.21,438.88,1570.2,439.24,1570.03,439.7z"/>
			<path class="st14" d="M1563.82,469.57c-0.14-0.29-0.13-0.69,0.04-1.14C1563.99,468.74,1563.98,469.1,1563.82,469.57z"/>
			<path class="st14" d="M1530.54,472.29c0.13,0.29,0.1,0.7-0.08,1.13C1530.33,473.11,1530.35,472.75,1530.54,472.29z"/>
			<path class="st14" d="M1529.88,474.77c0.13,0.3,0.1,0.7-0.09,1.14C1529.66,475.59,1529.69,475.24,1529.88,474.77z"/>
			<path class="st14" d="M1533.02,462.96c0.12,0.29,0.09,0.7-0.09,1.14C1532.81,463.78,1532.84,463.42,1533.02,462.96z"/>
			<path class="st14" d="M1566.27,457.74c-0.14-0.29-0.13-0.69,0.04-1.13C1566.45,456.92,1566.43,457.27,1566.27,457.74z"/>
			<path class="st14" d="M1526.47,488.11c0.07,0.39-0.02,0.88-0.31,1.46C1526.09,489.17,1526.2,488.7,1526.47,488.11z"/>
			<path class="st14" d="M1578.75,398c-0.16-0.28-0.17-0.68-0.03-1.13C1578.88,397.17,1578.89,397.53,1578.75,398z"/>
			<path class="st14" d="M1524.6,494.95c0.07,0.39-0.03,0.89-0.32,1.46C1524.21,496.01,1524.32,495.54,1524.6,494.95z"/>
			<path class="st14" d="M1523.66,497.8c0.14,0.29,0.12,0.7-0.06,1.14C1523.47,498.62,1523.49,498.27,1523.66,497.8z"/>
			<path class="st14" d="M1579.94,392.39c-0.14-0.29-0.13-0.68,0.02-1.12C1580.1,391.57,1580.1,391.93,1579.94,392.39z"/>
			<path class="st14" d="M1580.61,389.29c-0.15-0.29-0.16-0.69-0.01-1.13C1580.76,388.46,1580.76,388.82,1580.61,389.29z"/>
			<path class="st14" d="M1522.09,504.28c0.07,0.39-0.02,0.89-0.3,1.47C1521.71,505.35,1521.82,504.87,1522.09,504.28z"/>
			<path class="st14" d="M1572.51,427.87c-0.15-0.29-0.14-0.69,0.02-1.14C1572.68,427.05,1572.67,427.41,1572.51,427.87z"/>
			<path class="st14" d="M1581.25,386.18c-0.16-0.29-0.16-0.69-0.02-1.14C1581.39,385.35,1581.4,385.71,1581.25,386.18z"/>
			<path class="st14" d="M1585.01,368.14c-0.15-0.29-0.16-0.69,0-1.14C1585.16,367.31,1585.15,367.67,1585.01,368.14z"/>
			<path class="st14" d="M1568.74,445.91c-0.14-0.29-0.13-0.69,0.04-1.13C1568.92,445.09,1568.91,445.45,1568.74,445.91z"/>
			<path class="st14" d="M1512.14,541.62c0.06,0.39-0.04,0.89-0.34,1.46C1511.73,542.68,1511.85,542.21,1512.14,541.62z"/>
			<path class="st14" d="M1535.18,429.78c0.17-0.37,0.53-0.72,1.11-1.04C1536.14,429.11,1535.76,429.45,1535.18,429.78z"/>
			<path class="st14" d="M1513.06,537.62c0.14,0.3,0.12,0.7-0.06,1.14C1512.86,538.44,1512.88,538.09,1513.06,537.62z"/>
			<path class="st14" d="M1567.55,451.52c-0.14-0.29-0.12-0.7,0.05-1.14C1567.74,450.7,1567.72,451.06,1567.55,451.52z"/>
			<path class="st14" d="M1536.44,450.78c0.07,0.39-0.01,0.88-0.29,1.46C1536.07,451.84,1536.18,451.36,1536.44,450.78z"/>
			<path class="st14" d="M1535.51,453.62c0.13,0.29,0.1,0.7-0.08,1.14C1535.31,454.44,1535.33,454.09,1535.51,453.62z"/>
			<path class="st14" d="M1581.89,383.07c-0.16-0.28-0.17-0.69-0.03-1.14C1582.02,382.24,1582.03,382.6,1581.89,383.07z"/>
			<path class="st14" d="M1539.54,427.27c0.17-0.37,0.53-0.72,1.11-1.03C1540.49,426.62,1540.11,426.95,1539.54,427.27z"/>
			<path class="st14" d="M1566.91,454.63c-0.14-0.29-0.12-0.7,0.05-1.14C1567.1,453.81,1567.08,454.17,1566.91,454.63z"/>
			<path class="st14" d="M1577.48,404.22c-0.14-0.28-0.14-0.68,0.02-1.13C1577.64,403.4,1577.63,403.75,1577.48,404.22z"/>
			<path class="st6" d="M1074.79,586.81c-1.68-4.72-3.15-9.33-4.61-14.18c5.59-4.25,11.86-7.08,17.77-10.52
				c16.59-9.65,33.29-19.11,49.97-28.6c14.61-8.31,29.13-16.76,43.77-25.02c6.5-3.67,13.04-7.28,19.48-11.06
				c1.18-0.69,2.01-1.8,3.48-2.3c3.55,9.51,6.91,18.95,10.19,28.41c9.29,26.79,18.59,53.58,27.82,80.39
				c7.18,20.83,14.27,41.7,21.38,62.79c-1.95,1.46-4.21,1.55-6.32,1.57c-6.02,0.05-12,0.68-18,1.04c-2.24,0.14-3.14-1.24-3.95-2.87
				c-4.73-9.46-9.55-18.88-14.18-28.39c-11.26-23.15-20.69-47.08-30.3-70.93c-1.82-4.52-3.79-8.99-5.4-13.58
				c-0.77-2.2-1.72-3.5-4.26-2.4c-0.66,0.29-1.44,0.15-2.31-0.39c-2.39-6.24-4.57-12.36-6.88-18.87c-3.79,2.13-7.58,4.18-11.3,6.35
				c-14.41,8.41-28.75,16.92-43.23,25.22c-2.77,1.59-3.2,2.93-2.26,6.05c7.46,24.55,14.66,49.18,21.9,73.8
				c2.57,8.74,5.01,17.51,7.49,26.51c-0.81,1.18-1.86,1.49-3.03,1.64c-5.75,0.75-11.48,1.66-17.18,2.76
				c-4.27,0.82-5.18,0.34-7.16-3.49c-12.13-23.47-23.18-47.44-33.26-71.85C1082.38,593.94,1079.51,589.83,1074.79,586.81z"/>
			<path class="st10" d="M1161.75,370.19c2.58,6.73,4.86,13.69,7.15,20.3c2.6,7.5,5.08,15.05,7.64,22.82l3.01,8.91
				c4.58,12.85,9.03,25.53,13.46,38.21c1.67,4.78,3.3,9.58,4.95,14.61c-0.53,2.05-2.19,2.66-3.59,3.45
				c-19.57,11.07-39.17,22.09-58.75,33.16c-21.83,12.34-43.7,24.59-65.52,36.95c-1.92,1.08-3.74,2.72-6.43,2.1
				c-0.93-2.76-1.68-5.38-2.42-8.22c-0.48-1.94-1.08-3.6-1.86-5.44c-0.59-1.69-1.06-3.19-1.54-4.92c-0.03-0.57-0.1-0.9-0.34-1.35
				c-0.17-0.41-0.27-0.67-0.38-1.13c0.08-1.24-0.34-2.13-0.91-3.19c-0.79-2.3-1.45-4.42-2.13-6.77c-0.02-0.57-0.09-0.9-0.34-1.35
				c-0.21-0.6-0.35-1.06-0.46-1.75c2.11-2.1,1.93-4.47,1.44-6.86c-2.77-13.3-4.68-26.74-6.73-40.16
				c-1.55-10.14-2.45-20.36-3.49-30.55c-0.3-2.89,0.71-4.88,3.29-6.41c6.07-3.59,12.06-7.31,18.19-10.81
				c1.58-0.9,3.34-2.3,5.64-1.57c2.76,8.1,5.09,16.18,7.58,24.17c7.47,24.03,14.92,48.06,22.36,72.11c0.39,1.26,0.56,2.59,0.97,4.55
				c2.12-1.09,4.03-1.99,5.87-3.02c16.14-8.95,32.23-17.97,48.41-26.84c2.22-1.22,2.79-1.71,2.79-1.71
				c-3.21-9.74-7.25-22.53-10.36-32.54c0.12-10.41-1.58-20.41-2.9-30.44c-1.86-14.14-3.78-28.28-5-42.5
				c-0.15-1.8,0.15-3.33,1.71-4.35c5.2-3.42,10.74-6.22,16.23-9.11C1159.93,370.19,1160.8,369.74,1161.75,370.19z"/>
			<path class="st15" d="M1179.13,550.89c0.81-0.29,1.83-0.03,2.43-0.42c3.31-2.16,3.9-0.2,4.98,2.55
				c5.51,14.13,11.32,28.15,16.98,42.23c9.7,24.1,21.1,47.41,32.79,70.59c1.05,2.08,1.87,3.04,4.63,2.52
				c4.12-0.77,8.42-0.56,12.65-0.79c3.29-0.18,6.58-0.41,10.16-0.61c3.25,8.3,6.22,16.59,9.41,25.49c-1.71,0-2.71,0-3.71,0
				c-13.28,0.04-26.55,0.05-39.83,0.17c-2.19,0.02-3.28-0.61-4.01-2.8c-9.21-27.59-18.53-55.14-27.81-82.7
				c-6.05-17.95-12.08-35.91-18.12-53.87C1179.44,552.56,1179.33,551.84,1179.13,550.89z"/>
			<path class="st16" d="M1074.58,586.94c0.67-0.3,1.64-0.66,1.95-0.36c3.4,3.29,6.55,6.69,8.4,11.25
				c10.03,24.75,21.34,48.92,33.46,72.72c1.54,3.02,3.21,3.57,6.36,2.91c6.54-1.36,13.45-2.53,20.3-3.64l6.62,22.79h-45.39
				l-2.54-7.86C1094,652.24,1084.29,619.71,1074.58,586.94z"/>
			<path class="st10" d="M1204.85,494.95c-3.27,2.49-6.42,4.99-9.86,6.97c-16.75,9.63-33.6,19.08-50.38,28.67
				c-21.01,12-41.97,24.08-62.99,36.07c-3.57,2.04-7.3,3.8-11.19,5.71c-0.72-1.58-1.21-3.18-1.68-5.01
				c0.08-0.78-0.34-1.13-0.64-1.72c-0.19-0.42-0.29-0.68-0.4-1.14c-0.7-2.72-0.02-4.43,2.46-5.72c10.71-5.59,20.9-12.07,31.48-17.9
				c15.02-8.28,29.86-16.87,44.7-25.46c16.54-9.57,33.35-18.65,49.78-28.39c1.56-0.93,3.07-2.26,5.33-1.29
				C1202.7,488.83,1203.76,491.77,1204.85,494.95z"/>
			<path class="st17" d="M1201.65,485.65c-1.3,0.57-2.72,0.65-3.83,1.28c-16.24,9.27-32.42,18.67-48.67,27.93
				c-14.55,8.3-29.18,16.43-43.74,24.71c-9.96,5.66-19.85,11.45-29.79,17.17c-1.61,0.93-3.22,1.92-4.94,2.6
				c-2.27,0.9-3.14,2.38-2.81,4.84c-1.59-4.3-3-8.72-4.39-13.38c3.64-1.95,7.37-3.48,10.85-5.43c13.62-7.62,27.16-15.39,40.74-23.07
				c15.91-9,31.85-17.98,47.77-26.97c11.08-6.26,22.15-12.51,33.22-18.78c0.54-0.3,1.01-0.72,1.7-1.17
				C1199.2,478.66,1200.44,482.04,1201.65,485.65z"/>
			<path class="st18" d="M1161.85,370.49c-3.43,1.85-6.9,3.38-10.27,5.11c-2.67,1.37-5.33,2.82-7.74,4.57
				c-0.96,0.7-1.69,2.24-1.61,3.42c0.33,5.01,0.96,10,1.56,14.99c0.94,7.84,1.95,15.67,2.91,23.51c0.9,7.33,1.93,14.65,2.63,22
				c0.39,4.06,0.23,8.17,0.11,12.43c-3.78-10.63-7.4-21.41-10.92-32.23c-5.7-17.52-11.32-35.07-17-52.6
				c-0.64-1.98-1.06-2.68-1.06-2.68s32.84-20.37,33.91-20.77C1156.89,355.65,1159.37,362.95,1161.85,370.49z"/>
			<path class="st18" d="M1071.63,420.22c-2.7,1.49-5.49,2.56-8.06,4.02c-5.39,3.05-10.59,6.43-16.01,9.44
				c-2.92,1.62-2.35,4.11-2.11,6.47c0.7,6.95,1.5,13.88,2.41,20.8c1.03,7.84,2.1,15.67,3.37,23.47c1.42,8.71,3.25,17.36,4.54,26.1
				c0.27,1.86,1.85,4.96-2.19,5.82c-2.97-8.58-5.75-17.14-8.38-25.74c-5.85-19.1-11.68-38.21-17.43-57.35
				c-1.75-5.84-2.01-4.53,2.71-7.53c11.19-7.12,22.43-14.15,33.66-21.21c0.6-0.37,1.26-0.64,2.47-1.26
				C1068.33,408.99,1069.98,414.48,1071.63,420.22z"/>
			<path class="st17" d="M1059.24,537.08c0.76,1.4,1.47,3.03,2.1,4.91C1060.58,540.6,1059.89,538.96,1059.24,537.08z"/>
			<path class="st17" d="M1056.07,526.5c0.49,0.76,0.95,1.74,1.23,2.82C1056.77,528.53,1056.4,527.62,1056.07,526.5z"/>
			<path class="st17" d="M1067.96,565.67c0.35,0.21,0.64,0.62,0.87,1.24C1068.47,566.71,1068.19,566.29,1067.96,565.67z"/>
			<path class="st17" d="M1053.62,518.36c0.29,0.18,0.52,0.55,0.62,1C1053.92,519.15,1053.74,518.85,1053.62,518.36z"/>
			<path class="st17" d="M1057.38,530.81c0.29,0.18,0.52,0.54,0.61,1C1057.67,531.59,1057.49,531.29,1057.38,530.81z"/>
			<path class="st7" d="M1853.21,387.12c-3.52-1.79-11.95,7.26-15.56,5.67c-28.57-12.51-58.28-21.24-89.01-26.49
				c-15.55-2.66-31.18-4.66-46.98-5.19c-6.24-0.21-12.43,0.59-18.65,0.79c-5.78,0.18-11.59,0.69-17.36,1.32
				c-8.53,0.93-29.06,13.3-29.06,28.05c0,17.29,2.23,71.08,3.13,78.24c8.15,1.11,31.97,0.25,40.17,0.56
				c9.33,0.36,14.2,0.79,24.1,1.49c10.57,0.75,20.59,2.15,20.92,2.2c-0.06,0.81,13.69,1.72,13.69,1.72s-0.45,11.97-1.1,26.81
				c1.39,1.48,3.01,1.22,4.53,1.36c7.31,0.66,14.65,0.49,21.97,1.07c3.43,0.27,7.01,0.95,10.47-0.98
				c0.38-7.27,0.64-15.81,1.01-22.84c0,0,19.13,2.4,32.43,4.79c23.1,4.15,43.68,8.56,54.68,11.51c1.12-0.81,18.38-57.62,18.65-58.61
				c2.54-9.4-2.73-39.03-2.73-39.03S1855.19,388.12,1853.21,387.12z"/>
			<path class="st8" d="M1829.47,489.02c0.07-1.09,24.63-86.73,24.63-86.73s-5.06-2.87-6.44-3.59c-14.07-7.36-28.84-13-43.93-17.84
				c-18.67-6-37.59-11.04-57.03-13.85c-9.67-1.4-19.36-2.7-29.07-3.69c-7.18-0.73-14.42-1.38-21.61-1.17
				c-11.2,0.33-22.37,1.41-33.75,2.19c-0.92,8.98-1.78,17.45-2.63,26.2c-3.37,0.47-17.52,2.1-22.94,3.36
				c-0.26-6.29-0.22-8.21-0.48-14.45c-0.34-8.18-0.3-19.37-0.35-27.55c-0.01-1.2,0-5.72,0-5.72s16.2-1.48,17.99-1.6
				c15.54-1.03,31.07-1.21,46.63-0.17c32.04,2.14,63.51,6.54,94.28,15.55c24.01,7.02,60.01,18,83.74,31.3c2.63,1.48,13,7.95,13,7.95
				s-5.59,24.4-9.96,40.55c-4.16,15.39-19.96,55.68-19.96,55.68S1857.19,494.47,1829.47,489.02z"/>
			<path class="st6" d="M1733.05,583.78c0.51-11.85,1.03-23.42,1.58-35c0.3-6.3,0.67-12.6,1.02-18.9c0.14-2.48,0.33-4.95,0.57-7.68
				l3.11-1.03c9.45,0.55,19.66,0.95,29.12,1.05c1.63,0.02,3.64-0.22,5.39,0.81c0,0-0.4,6.65-0.49,10.06
				c-2.33,17.1-5.47,33.57-7.24,50.46c-1.1,10.5-1.83,21.03-2.82,31.53c-0.57,6.08-1.08,12.16-1.69,18.24
				c-0.29,2.9-1.75,4.19-4.49,4.55c-2.98,0.4-5.93,1-8.9,1.45c-4.11,0.62-5.04,0.09-5.82-3.95c-2.53-13.01-5.65-25.91-7.68-39.02
				C1734.07,592.26,1733.05,588.23,1733.05,583.78z"/>
			<path class="st19" d="M1732.9,583.73c0.97,3.65,1.89,7.51,2.65,11.41c2.43,12.51,4.73,25.05,7.24,37.54
				c1.32,6.57,1.47,6.5,8.23,5.18c3.02-0.59,6.07-0.99,9.3-1.51c0.49-4.66,1.02-9.13,1.44-13.61c0.84-9.01,1.62-18.02,2.45-27.03
				c0.62-6.76,1.1-13.54,1.97-20.26c1.13-8.66,2.52-17.28,3.94-25.89c0.89-5.37,2.04-10.69,3.24-16.2
				c-0.2,11.64-0.56,23.44-0.92,35.24c-0.7,22.27-1.39,44.54-2.11,66.81c-0.32,9.84,0.48,37.01,0.48,37.01s-42.54,6.12-43.35,6.19
				C1729.23,646.96,1731,615.46,1732.9,583.73z"/>
			<path class="st7" d="M1773.85,523.03c-12.41-0.21-24.97-0.48-37.54-0.92c0.18-3.71,0.71-10.04,0.71-10.04
				c3.39-2.06,6.7-1.14,10.13-0.89c7.42,0.56,14.87,0.47,22.28,1.06c1.43,0.11,3.2-0.21,4.76,0.73
				C1774.19,512.98,1774.01,519.62,1773.85,523.03z"/>
			<path class="st6" d="M1774.19,512.98c-7.89,0.07-15.71-0.13-23.54-0.38c-4.42-0.15-8.93-0.31-13.64-0.52c0,0,0.49-6.4,0.49-9.79
				c0,0,1.58,0.16,2.38,0.2c5.88,0.26,11.6,0.59,17.48,0.81c5.46,0.21,11.35,0.13,17.11,0.37
				C1774.48,503.66,1774.28,509.79,1774.19,512.98z"/>
			<path class="st7" d="M703.16,565.33c-1.11,3.64-2.42,7.08-3.88,10.69c-3.14,2.4-6.56-0.55-9.58,3.09
				c-7.27,8.76-19.49,8.31-27.17-0.09c-3.08-3.37-5.59-0.86-8.69-2.73c1.1-3.61,2.43-7.01,3.88-10.59c1.28-1.01,2.04-0.04,2.9,0.43
				c3.47,1.9,6.72,0.93,8.26-2.48c1.54-3.4-0.05-7.04-3.61-8.28c-0.88-0.3-1.86-0.23-2.83-0.91c5.81-15,11.78-29.84,17.75-44.67
				c0.5-1.24,1.01-2.49,1.66-3.89c3.39-4.45,7.06-8.38,10.68-12.34c8.04-8.78,16.18-17.45,24.23-26.22c0.63-0.69,1.3-1.34,1.98-1.97
				c2.28-2.07,3.01-1.96,4.29,0.8c2.19,4.69,4.4,9.37,6.63,14.04c8.42,17.6,18.37,34.31,29.09,50.58c0.69,1.05,1.22,2.15,1.88,3.41
				c0.2,0.1,0.16,0.15,0.15,0.12c0.09,0.33,0.16,0.7,0.38,1.2c1.94,6.19,3.76,12.25,5.58,18.54c-1.06,1.33-2.46,1.25-3.79,1.24
				c-14.81-0.15-29.6,1.1-44.41,0.64c-1.64-0.05-3.33,0.21-5.15-0.75c-0.99-2.33-1.71-4.51-2.64-7.31c-1.23,2.91-2.19,5.19-3.3,7.65
				c-1.44,0.99-2.9,0.96-4.35,0.96c-6.22,0.01-12.44,0-18.66,0.01c-1.66,0-3.33,0.03-4.91,0.65c-1.95,0.76-3.66,1.97-3.48,4.24
				c0.19,2.42,2.09,3.58,4.33,3.7c4.34,0.24,8.69,0.33,13.04-0.18C696.6,564.52,699.81,564.15,703.16,565.33z"/>
			<path class="st11" d="M772.53,575.29c5.98,19.59,11.71,39.05,17.38,58.52c3.59,12.32,7.09,24.66,10.64,37.24
				c-1.23,1.31-2.6,0.64-3.87,0.44c-10.55-1.62-21.07-3.47-31.72-4.38c-2.44-0.21-3.63-1.77-4.5-3.75
				c-3.37-7.68-6.83-15.33-10.22-23c-4.02-9.1-8.28-18.08-12.44-27.11c-2.56-5.57-4.67-11.3-6.44-17.15
				c-1.3-4.28-2.93-8.41-4.69-12.5c-0.99-2.3-2.26-4.4-4.67-5.61c-1.13-0.56-2.19-1.42-0.71-3.02c3.08-1.12,5.25,0.31,8.36-1.5
				c11-6.37,24.38-5.41,35.65,0.47C767.61,575.14,769.92,573.7,772.53,575.29z"/>
			<path class="st6" d="M653.48,576.26c15.1-0.17,30.07-0.16,45.35-0.12c-1.33,4.24-2.97,8.44-4.73,12.83
				c-0.41,0.45-0.43,0.82-0.61,1.32c-0.09,0.16-0.11,0.11-0.09,0.12c-10.94,12.23-20.96,25.14-28.93,39.55
				c-6.08,10.99-13.58,21.08-20.29,31.67c-0.82,1.3-1.89,2.24-3.49,2.28c-6.53,0.15-13.02,0.8-19.52,1.3
				c-0.92,0.07-1.87,0.04-2.9-0.6c4.74-12.55,9.62-24.95,14.57-37.31C639.64,610.35,646.51,593.41,653.48,576.26z"/>
			<path class="st8" d="M760.84,534.05c-0.77-0.54-1.67-1.23-2.27-2.12c-12.66-18.84-23.66-38.62-33.41-59.1
				c-1.32-2.77-2.48-5.62-4.16-9.47c-1.93,2.25-3.41,4.07-5,5.8c-7.63,8.29-15.31,16.54-22.95,24.82
				c-3.57,3.86-7.09,7.77-10.85,11.71c3.97-10.54,8.11-21.15,12.35-31.73c9.09-22.7,18.24-45.39,27.37-68.08
				c0.34-0.85,0.73-1.68,1.36-3.13c0.94,2.82,1.78,5.08,2.44,7.39c11.37,39.81,22.71,79.63,34.05,119.45
				C760.17,530.98,760.49,532.39,760.84,534.05z"/>
			<path class="st9" d="M617.97,664.65c7.65-0.61,15.17-0.97,22.68-1.51c0.96-0.07,2.19-0.82,2.72-1.63
				c5.54-8.34,11.03-16.72,16.4-25.18c5.37-8.45,10.25-17.23,15.97-25.43c4.76-6.82,10.42-13.03,15.72-19.47
				c0.37-0.45,1.01-0.66,1.75-0.99c-5.14,13.56-10.54,27.11-15.86,40.69c-6.54,16.67-12.99,33.38-19.58,50.03
				c-0.47,1.19-1.63,2.62-2.77,2.97c-16.72,5.13-33.48,10.09-51.18,15.37C608.67,687.48,613.25,676.16,617.97,664.65z"/>
			<path class="st9" d="M720.6,575.36c0.55,0.71,0.84,1.69,1.31,1.78c2.99,0.62,4.2,2.99,5.13,5.36c2.57,6.52,4.74,13.2,7.41,19.68
				c3.77,9.15,7.82,18.19,11.81,27.25c4.83,10.96,9.77,21.88,14.54,32.87c1.2,2.76,2.74,3.86,5.98,4.18
				c9.4,0.92,18.74,2.53,28.1,3.89c1.73,0.25,3.44,0.61,5.42,0.92c2.75,8.16,5.25,16.32,7.91,25.04
				c-6.05-1.04-11.52-1.97-16.98-2.93c-11.42-2-22.82-4.06-34.25-5.96c-2.69-0.45-4.18-1.33-5.06-4.28
				c-10.67-35.78-21.53-71.5-32.33-107.48C719.83,575.24,720.11,575.17,720.6,575.36z"/>
			<path class="st10" d="M721.07,575.49c-0.56,0-0.82-0.02-1.29-0.04c-1.21-3.16-2.22-6.3-3.23-9.68c1.06-1.32,2.46-1.15,3.79-1.24
				c12.93-0.87,25.88-0.6,38.83-0.63c1.87,0,3.72-0.09,5.58-0.38c1.43-0.22,2.89-0.38,4.52,0.51c1.32,3.73,2.38,7.31,3.5,11.13
				C755.66,575.44,738.51,575.46,721.07,575.49z"/>
			<path class="st11" d="M769.5,563.95c-17.45,0.69-34.92,1.13-52.67,1.58c-1.38-3.34-2.49-6.69-3.64-10.28
				c17.63-0.47,35.31-0.72,53.27-0.97C767.66,557.42,768.57,560.56,769.5,563.95z"/>
			<path class="st11" d="M703.53,565.37c-7.28,0.35-14.39,0.55-21.5,0.75c-0.72,0.02-1.45,0.05-2.17-0.01
				c-2.42-0.22-5.13-2.54-5.09-4.66c0.05-2.64,1.7-4.37,4.1-5.22c1.24-0.44,2.62-0.63,3.93-0.64c7.96-0.05,15.92-0.01,24.2,0.05
				C706.11,558.86,704.9,562.05,703.53,565.37z"/>
			<path class="st6" d="M662.15,554.49c4.16-0.13,6.77,1.37,7.86,4.24c0.95,2.5-0.04,5.88-2.29,7.81c-2.2,1.89-5.06,2.05-7.43,0.41
				c-0.67-0.46-1.34-0.93-2.23-1.42C659.24,561.9,660.63,558.28,662.15,554.49z"/>
			<path class="st8" d="M761.3,535.46c-0.2-0.12-0.39-0.45-0.56-0.97C760.95,534.61,761.13,534.94,761.3,535.46z"/>
			<path class="st9" d="M693.55,590.34c-0.06-0.25,0.03-0.6,0.27-1.07C693.88,589.51,693.79,589.87,693.55,590.34z"/>
			<path class="st20" d="M1274.65,541.44c-2.25-5.93-4.3-11.74-6.36-17.79c-7.45-29.14-13.17-58.42-19.13-87.65
				c-2.03-9.95-3.48-20-4.78-30.07c-0.31-2.41,0.59-3.57,2.66-4.55c20.22-9.65,40.74-18.61,61.72-26.51
				c3.98-1.5,8.08-2.67,12.07-4.12c2.27-0.82,3.65-0.13,4.89,1.87c13.27,21.44,28.37,41.6,43.33,61.87
				c4.74,6.42,9.34,12.94,13.69,19.64c1.24,1.9,2.43,3.86,4.47,5.43c2.82,5.82,5.45,11.48,8.12,17.37
				c-0.18,0.44-0.43,0.74-0.71,0.74c-6.84,0.1-11.86,4.48-17.42,7.48c-5,2.7-9.88,5.64-14.93,8.27c-0.82,0.43-1.59,1-2.82,0.81
				c-1.67-1.5-2.34-3.4-3.14-5.17c-6.88-15.19-13.85-30.34-20.8-45.5c-4.75-10.36-9.57-20.68-14.33-31.03
				c-0.87-1.9-1.92-2.1-3.66-1.32c-12.87,5.76-25.72,11.56-38.68,17.09c-2.33,1-2.64,2.38-1.8,4.68
				c10.53,28.58,21.21,57.1,31.51,85.76c0.38,1.06,0.96,2.08,0.74,3.51c-2.61,3.48-6.65,4.38-9.95,6.44
				c-6.93,4.33-14.27,7.95-21.33,12.07C1277.06,541.32,1276.11,542.07,1274.65,541.44z"/>
			<path class="st11" d="M1404.65,498.23c4.55,9.4,8.88,18.83,13.22,28.48c1.57,6.6,1.97,19.62,1.97,19.62l3.48,34.6l0.91,9.97
				l-62.4,47.33l-18.82,15.86l-3.83,3.38l-3.15-3.77l-13.82-21.07l-21.42-32.08c0,0-11.9-17.46-11.91-17.44c0,0-3.4-10.2-5.15-15.14
				c8.77-5.62,34.68-20.17,34.68-20.17l25.28,66.81l52.91-41.07l-25.11-51.69c0,0-1.11-2-1.16-3.4c3.5-2.84,11.1-6.93,11.1-6.93
				S1396.73,502.64,1404.65,498.23z"/>
			<path class="st12" d="M1288.89,583.21c1.63,1.74,3.41,3.63,4.88,5.73c5.52,7.95,11.02,15.92,16.38,23.98
				c6.69,10.05,13.24,20.2,19.87,30.29c2.44,3.71,4.99,7.35,7.38,11.1c0.95,1.5,1.83,1.76,3.19,0.63c2.35-1.96,4.62-4.02,7.01-5.94
				c10.56-8.47,20.86-17.28,31.61-25.51c12.27-9.38,24.82-18.41,37.26-27.56c0.98-0.72,2.01-1.36,3.06-1.95
				c3.82-2.14,4.38-3.51,3.79-7.54c-0.67-4.53-1.3-9.06-1.79-13.61c-1.07-9.94-2.09-19.89-2.89-29.85
				c-0.42-5.14-0.5-10.3-0.74-15.74c5.79,12.18,11.59,24.63,17.35,37.11c4.29,9.3,8.45,18.66,12.82,27.92
				c1.03,2.18,0.71,3.33-1.2,4.83c-35.17,27.59-70.27,55.26-105.4,82.9c-5.03,3.96-10.1,7.86-15.42,12.01
				c-3.81-11.07-7.51-21.79-11.19-32.52c-8.56-24.94-17.1-49.88-25.64-74.83C1289.07,584.26,1289,583.85,1288.89,583.21z"/>
			<path class="st21" d="M1387.39,459.47c-0.88-0.28-2.1-0.58-2.65-1.34c-6.28-8.7-12.47-17.48-18.66-26.24
				c-12.27-17.36-24.54-34.72-36.79-52.1c-1.49-2.11-3.09-4.21-4.12-6.54c-1.11-2.5-2.46-2.39-4.6-1.56
				c-12.62,4.9-25.39,9.44-37.89,14.62c-12.7,5.26-25.14,11.13-38.24,16.98c2.62,14.93,4.91,29.74,7.87,44.41
				c4.05,20.07,8.62,40.04,12.94,60.05c1.08,5.02,2.05,10.06,3.05,15.38c-3.43-9.34-6.89-18.95-10.24-28.6
				c-11.48-33.09-22.91-66.2-34.41-99.28c-0.77-2.22-0.98-3.53,1.77-4.68c36.06-15.08,72.06-30.29,108.08-45.48
				c0.47-0.2,0.94-0.37,1.81-0.71C1352.69,382.73,1370.03,420.99,1387.39,459.47z"/>
			<polygon class="st7" points="1318.42,547.8 1283.73,567.97 1279.15,554.22 1313.88,534.84 			"/>
			<path class="st7" d="M1405.09,499.14c0,0-6.82,3.68-10.17,5.62c-7.95,4.62-15.79,8.84-24,13.4c-2.33-0.82-2.31-3.08-3.24-4.69
				c-1.17-2.03-2.3-5.36-2.78-7.93l2.9-1.81c7.5-4.19,14.87-8.6,22.44-12.65c3.3-1.77,6.1-3.87,7.69-7.57
				C1400.36,488.19,1402.83,494.13,1405.09,499.14z"/>
			<path class="st11" d="M1313.83,534.86c-11.6,6.55-23.05,12.91-34.69,19.36c-1.67-4.08-3.15-8.25-4.67-12.66
				c3.25-1.89,6.6-3.43,9.81-5.2c8.11-4.49,16.15-9.08,24.43-13.71c0.82-0.16,1.2,0.2,1.4,0.68
				C1311.6,527.05,1313.32,530.68,1313.83,534.86z"/>
			<path class="st11" d="M1399.51,486.64c0,0-4.43,2.65-7.52,4.38c-11.56,6.44-26.15,14.78-26.69,15.37l-5.95-12.29
				c9.47-5.29,18.71-10.52,28.14-15.42c2.14-1.11,7.02-3.61,7.02-3.61C1395.67,477.02,1398.59,484.48,1399.51,486.64z"/>
			<path class="st12" d="M1287.59,579.43c0.22,0.27,0.46,0.76,0.69,1.47C1288.05,580.63,1287.83,580.14,1287.59,579.43z"/>
			<path class="st12" d="M1288.25,581.29c0.22,0.28,0.44,0.77,0.66,1.47C1288.69,582.49,1288.47,582,1288.25,581.29z"/>
			<path class="st6" d="M331.72,682.03c-1.67-10.36-3.19-20.57-4.61-30.79c-1.99-14.32-3.89-28.65-5.85-42.97
				c-1.99-14.53-4.01-29.05-6.01-43.57c-0.17-1.23-0.37-2.45-0.52-3.93c7.86-3.63,15.87-6.52,23.97-9.19
				c2.42-0.8,4.64-2.3,7.58-2.12c2.02,1.21,1.7,3.19,1.98,4.84c3.02,17.77,5.93,35.56,8.94,53.33c1.21,7.15,2.54,14.28,3.84,21.42
				c0.2,1.1,0.28,2.26,0.95,3.27c1.69,0.54,3.09-0.32,4.44-0.97c10.43-5.02,20.9-9.94,31.44-14.73c5.51-2.5,10.99-5.07,16.41-7.74
				c3.22-1.58,3.49-2.13,2.46-5.57c-6.42-21.44-13.35-42.72-20.1-64.05c-0.78-2.46-1.71-4.89-1.88-7.74
				c1.47-1.57,3.37-1.88,5.08-2.51c7.54-2.76,15.07-5.57,22.63-8.31c1.07-0.39,2.12-0.87,3.47-0.13c2.25,6.01,4.31,11.88,6.37,17.97
				c-1.49,1.48-3.11,0.95-4.72,0.56c-2.69-0.66-3.71-0.08-4.18,2.49c-0.28,1.55-0.18,3.15,0.18,4.69c0.78,3.32,1.61,6.64,2.96,9.78
				c2.67,6.22,4.75,12.68,5.8,19.37c2.98,18.89,8.42,37.1,15.7,54.74c1.05,2.55-0.23,5.4-2.84,6.32
				c-28.84,10.26-57.23,21.63-85.15,34.18c-8.13,3.65-16.36,7.09-24.55,10.6C334.36,681.73,333.24,682.37,331.72,682.03z"/>
			<path class="st7" d="M311.74,536.41c-2.08-13.67-3.96-27.17-5.82-40.95c2.06-2.54,4.54-2.41,7.18-1.67
				c3.28,0.92,4.15,0.39,4.26-2.99c0.14-4.34,0.34-8.69-0.45-13.01c-3.24-17.64-4.25-35.56-6.95-53.27
				c-0.33-2.15-0.7-4.29-0.58-6.48c0.11-1.92,0.92-3.03,2.9-3.4c23.44-4.42,46.36-11.13,69.79-15.61c1.02-0.19,2.03-0.48,3.26,0.18
				c4.57,12.86,8.98,25.54,13.26,38.27c6.09,18.12,12.07,36.27,18.09,54.42c0.51,1.55,0.96,3.12,1.47,4.92
				c-4.12,3.17-9.26,3.72-13.66,6.03c-3.38,1.78-6.92,3.3-10.67,4.06c-1.86,0.38-3.38,1.6-5.67,1.23c-1.91-1.14-2.12-3.01-2.61-4.65
				c-6.48-22.09-14.15-43.81-20.36-65.98c-0.7-2.49-3.27-3.89-5.73-3.1c-8.93,2.85-17.67,6.25-26.62,9.04
				c-2.41,0.75-2.93,2.03-2.54,4.39c2.52,15.24,5.47,30.41,7.83,45.68c1.46,9.43,3.08,18.83,4.63,28.24
				c0.18,1.12,0.42,2.25,0.21,3.64c-4.58,3.34-10.17,3.33-14.53,6.71c-2.54,1.98-5.62,3.22-8.84,3.08
				C317.01,535.06,314.85,537.71,311.74,536.41z"/>
			<path class="st12" d="M331.49,682.14c9.53-4.3,19.05-8.33,28.54-12.38c12.35-5.28,24.59-10.85,37.07-15.8
				c16.41-6.52,33.02-12.57,49.53-18.83c0.65-0.24,1.22-0.68,1.74-0.98c-2.89-8.13-6.21-15.96-8.43-24.08
				c-3.54-12.89-6.25-26-9.51-38.97c-1.18-4.69-3.01-9.21-4.38-13.86c-1.34-4.53-2.59-9.1-3.6-13.71c-0.29-1.3,0.03-3.07,0.77-4.14
				c0.61-0.89,2.24-1.46,3.44-1.49c1.69-0.04,3.4,0.55,5.36,0.87c4.53,12.43,8.84,24.84,13.06,37.28
				c7.71,22.74,15.36,45.5,23.03,68.25c0.36,1.07,0.66,2.15,1.05,3.45c-44.95,18.03-89.79,36.02-134.94,54.13
				C333.28,695.22,332.37,688.81,331.49,682.14z"/>
			<path class="st8" d="M385.53,399.13c-6.24,1.52-12.52,2.7-18.74,4.12c-16.46,3.76-32.9,7.65-49.35,11.44
				c-2.2,0.51-4.46,0.71-7.34,1.15c0.29,3.43,0.48,6.87,0.88,10.29c0.95,8.06,1.93,16.11,3.01,24.15c1.28,9.57,2.83,19.1,3.93,28.69
				c0.51,4.48,0.5,9.07,0.26,13.58c-0.12,2.26-1.96,3.46-4.01,2.49c-2.63-1.24-5.21-1.19-8,0.13c-1.49-8.46-2.77-16.95-3.99-25.45
				c-2.83-19.67-5.62-39.34-8.43-59c-0.57-3.99-1.14-7.97-1.76-12.34c29.51-5.05,58.83-10.06,88.35-15.11
				C382.09,388.51,383.81,393.7,385.53,399.13z"/>
			<path class="st6" d="M387.74,508c6.01-2.34,11.89-4.45,17.78-6.56c4.05-1.46,8.1-2.92,12.4-4.38c1.83,4.41,3.41,8.83,4.99,13.49
				c-10.11,3.98-20.15,7.97-30.89,10.51C388.96,517.19,388.15,512.75,387.74,508z"/>
			<path class="st10" d="M346.62,549.75c-2.33,0.87-4.52,1.45-6.64,2.21c-7.26,2.63-14.49,5.34-21.75,7.98
				c-0.94,0.34-1.99,0.4-3.23,0.58c-0.77-3.95-1.3-7.89-1.82-12.11c0.43-1.39,1.46-1.69,2.43-2.02c8.73-2.92,17.37-6.06,26.09-9
				c0.89-0.3,1.78-0.56,2.93-0.03C346.55,541.34,347.26,545.35,346.62,549.75z"/>
			<path class="st6" d="M344.62,537.33c-6.17,2.16-12.16,4.08-18.12,6.09c-4.31,1.45-8.57,3.02-13.08,4.62
				c-0.79-3.7-1.36-7.48-1.9-11.52c4.96-1.91,9.92-3.5,14.83-5.21c5.23-1.82,10.41-3.75,15.84-5.64
				C344.99,529.12,344.96,533.12,344.62,537.33z"/>
			<path class="st10" d="M391.72,520.91c9.15-3.23,18.13-6.28,27.12-9.29c1.16-0.39,2.39-0.58,3.83-0.85
				c1.31,3.16,2.38,6.31,3.45,9.7c-4.95,1.89-9.92,3.49-14.86,5.2c-5.24,1.81-10.45,3.73-15.91,5.6
				C392.59,528.34,391.7,524.85,391.72,520.91z"/>
			<path class="st7" d="M641.7,457.07c-3.46,8.24-7.03,16.27-10.66,24.28c-7.77,17.16-15.57,34.31-23.49,51.64
				c-0.28,0.32-0.44,0.47-0.64,0.49c-5.99,0.62-7.16,3.18-3.57,8.27c-1,2.74-2.1,5.29-3.34,8.02c-1.83,1.37-3.85,1.54-5.78,1.63
				c-10.55,0.48-21.06,1.59-31.61,2.03c-3.2,0.13-17.91,17.66-21.41,16.9l29.09-55.76c2.67-0.72-8.88,28.17-6.38,28.27
				c7.63,0.31,15.22-0.87,22.85-0.7c0.85,0.02,1.7,0.01,2.54-0.1c3.04-0.39,5.84-1.49,5.6-4.58c-0.18-2.26-1.8-3.49-3.91-3.8
				c-2.87-0.42-5.79-0.36-8.66,0.06c-25.15,3.68-20.57-0.41-20.57-0.41c3.54-7.49,8.38-18.71,12.11-26.11
				c6.63-13.14,13.46-26.18,19.63-39.55c0.3-0.65,0.7-1.29,0.46-2.65c-30.1-6.91-60.53-13.33-91.3-18.98
				c-0.69,3.26,0.66,5.83,1.47,8.41l22.76,78.11c-5.69,0.73-11.47,1.24-16.93,1.56c-6.08,0.36-12.21-0.26-18.29,0.6
				c-1.61,0.23-3.32,0.3-5.15-0.62c-3.1-8.27-5.92-16.44-8.74-24.84c0.07-1.96,1.25-1.23,1.97-0.99c1.94,0.66,2.46-0.44,2.71-2.03
				c0.04-0.24,0.02-0.63-0.02-0.87c-1.05-5.73,0.46-11.79-2.29-17.3c-3.39-6.8-3.83-14.37-5.27-21.63
				c-2.58-13.03-5.96-25.84-9.57-38.6c-1.27-4.49-2.35-9.02-3.48-13.55c-1.19-4.75-0.62-5.32,4.29-4.2
				c5.66,1.3,11.34,2.54,16.98,3.92c31.33,7.67,62.52,15.9,93.71,24.1c20.36,5.35,40.59,11.18,60.79,17.11
				C638.97,455.59,640.42,455.86,641.7,457.07z"/>
			<path class="st8" d="M641.99,457.14c-33.69-9.04-67.2-18.34-100.78-27.37c-19.62-5.28-39.35-10.17-59.06-15.14
				c-6.65-1.68-13.38-3.04-20.64-4.68c2.32,8.65,4.63,16.74,6.64,24.91c2.92,11.89,5.67,23.82,8.41,35.76
				c1.42,6.19,2.2,12.49,4.78,18.45c1.24,2.86,0.86,6.41,1.25,9.65c0.13,1.1,0.29,2.19,0.52,3.27c0.59,2.8,0.65,5.49-1.17,8.01
				c-1.38-0.48-2.66-0.92-4.07-1.2c-3.74-10.41-7.4-20.97-10.98-31.56c-10.23-30.23-20.43-60.46-30.64-90.7
				c-0.39-1.15-0.7-2.33-1.24-4.13c72.61,17.53,144.66,34.93,217.18,52.44C648.71,442.52,645.42,449.76,641.99,457.14z"/>
			<path class="st11" d="M550.61,552.26l49.38-2.49c-3.74,9.03-8.16,18.25-12.34,27.43c-0.46,0.4-0.51,0.77-0.69,1.28
				c-0.09,0.16-0.1,0.11-0.08,0.12c-14.37,15.95-27.22,33.09-39.99,50.31c-4.21,5.67-4.19,5.61-8.24-0.1
				c-7.62-10.72-15.15-21.51-23.51-31.69c-5.16-6.28-8.42-13.77-12.44-20.76c-1.65-2.87-3.46-5.66-4.91-8.88
				c-0.16-0.15-0.2-0.29-0.14-0.33c0.03-0.3-0.07-0.53-0.37-0.87c-1.13-2.89-2.28-6.84-3.26-9.83l40.05-2.33l6.88,16.64
				L550.61,552.26z"/>
			<path class="st19" d="M497.63,567.57c1.71,2.28,3.54,4.74,5.12,7.36c4.2,6.98,7.88,14.31,12.52,20.97
				c8.54,12.25,17.62,24.12,26.48,36.14c0.17,0.23,0.49,0.34,1.12,0.76c2.31-2.97,4.62-5.94,6.92-8.91
				c9.01-11.65,17.93-23.36,27.07-34.91c2.91-3.68,6.39-6.92,9.83-10.37c-3.32,8.04-6.83,16.11-10.42,24.13
				c-12.39,27.7-24.82,55.39-37.23,83.08c-0.28,0.63-0.66,1.23-1.23,2.28c-2.57-7.68-5-14.93-7.43-22.18
				c-8.63-25.72-17.28-51.43-25.89-77.15C502.14,581.82,499.91,574.82,497.63,567.57z"/>
			<path class="st6" d="M486.5,534.05c13.4-0.71,26.62-1.06,40.37-1.53l4.14,12.7c-1.74,0.91-3.67,1.83-5.32,1.88
				c-10.01,0.34-19.99,1.06-29.96,1.87c-1.43,0.12-2.9,0.22-4.48-0.68L486.5,534.05z"/>
			<path class="st10" d="M491.06,547.83c13.17-1.09,26.48-1.69,39.94-2.61l3.06,8.88c-4.28,0.66-26.43,2.2-35.44,2.72
				c-1.32,0.08-2.63,0.37-4.2,0.57C494.43,557.39,492.12,550.99,491.06,547.83z"/>
			<path class="st14" d="M603.03,542.57c-3.52,0.39-4.48-4.78-3.44-7.19c0.94-2.15,5.28-3.93,7.95-2.4L603.03,542.57z"/>
			<path class="st19" d="M587.03,578.53c-0.06-0.25,0.04-0.62,0.3-1.08C587.39,577.7,587.29,578.06,587.03,578.53z"/>
			<path class="st19" d="M497.16,566.33c0.14,0,0.31,0.19,0.51,0.58C497.54,566.91,497.36,566.72,497.16,566.33z"/>
			<path class="st13" d="M1026.53,394.25c-3.68,2.34-7.17,4.56-11.01,7c-1.48-4.82-2.94-9.4-4.24-14.02
				c-0.15-0.54,0.4-1.62,0.93-1.96c13.76-8.81,27.56-17.56,41.63-26.5c1.54,5.17,3.01,10.07,4.55,15.23
				C1047.81,380.72,1037.26,387.43,1026.53,394.25z"/>
			<path class="st11" d="M987.7,540.63c-1.63,1.36-3,2.94-4.71,3.55c-3.06,1.09-6.2-0.89-6.73-3.73c-0.49-2.6,2.37-6.14,5.36-6.64
				C986.43,533.01,988.44,535.15,987.7,540.63z"/>
			<path class="st22" d="M1394.87,570.32c-1.69-3.55-3.25-7.17-4.9-10.73c-6.41-13.8-12.84-27.6-19.38-41.59
				c-1.78-3.95-3.46-7.71-5.29-11.61c-2.04-4.25-3.91-8.36-5.89-12.67c-12.96-28.2-25.82-56.2-38.76-84.39
				c-1.1,0.32-46.16,19.94-46.16,19.94l24.64,65.91c3.34,9.11,6.54,18.26,9.97,27.54c1.64,4.21,3.11,8.27,4.67,12.55
				c1.56,4.39,3.03,8.56,4.67,12.89c8.18,21.76,16.18,43.37,24.21,64.97c1.06,2.85,1.53,2.97,3.87,1.06
				c3.21-2.62,6.39-5.28,9.58-7.92c12.53-10.39,25.03-20.81,37.6-31.13C1395.46,573.69,1395.82,572.31,1394.87,570.32z
				 M1379.43,569.13l-30.52,22.97c0.48-0.35-57.76-153.55-57.76-153.55l22.96-9.3C1313.67,429.57,1380.95,568.11,1379.43,569.13z"/>
			<path class="st1" d="M413.27,589.06c-6.02-19.28-12.1-38.54-18.25-58.02c-1.11-3.59-2.12-6.96-3.26-10.52
				c-1.39-4.38-2.64-8.57-4.02-12.94c-7.9-25.23-15.67-50.27-23.56-75.65c-11.85,4.01-23.48,7.94-35.18,11.9
				c0,0.76-0.09,1.38,0.01,1.97c2.14,12.33,4.37,24.64,6.44,36.99c2.39,14.28,4.65,28.58,7.05,43.12c0.69,4.04,1.3,7.83,1.99,11.86
				c0.7,4.22,1.32,8.2,2.09,12.37c4.85,28.01,9.55,55.83,14.4,84.54c19.56-9.12,38.64-18.02,57.86-26.98
				C416.89,601.13,415.15,595.07,413.27,589.06z M402.47,598.89l-32.05,14.01l-29.66-160.5l17.21-6.18L402.47,598.89z"/>
			<path class="st11" d="M554.86,544.11l5.58-10.7c0,0,21.54-0.7,29.94-0.85c2.81-0.05,5.54,2.32,5.76,4.67
				c0.24,2.6-0.67,5.04-3.82,5.79c-1.08,0.26-2.41,0.25-3.51,0.29C580.43,543.62,560.93,543.89,554.86,544.11z"/>
		</g>
	</g>
</g>
<path class="st1" d="M871.23,163.63c-0.46,1.06-0.28,2.35-0.35,3.5c0.08,1.14-0.12,2.45,0.35,3.5c0.46-1.06,0.28-2.35,0.35-3.5
	C871.5,165.99,871.7,164.68,871.23,163.63z"/>
<path class="st0" d="M1901.42,397.06c-0.04-1.7-0.15-3.4-0.39-5.08c0.01-0.46-0.13-0.85-0.43-1.16c-4.3-3.65-9.42-6.09-14.4-8.66
	c-7.28-3.62-14.74-6.88-22.31-9.87c-17.94-7.14-36.11-13.7-54.51-19.53c-22.53-7.27-45.49-13.28-68.73-17.81
	c-34.23-6.32-69.55-8.2-104.06-3.1c-3.56,0.81-7.12,1.63-10.67,2.45c-0.17,5.64-0.34,11.29-0.51,16.93c2.35-0.62,4.7-1.21,7.08-1.68
	c0.79-0.15,1.59-0.27,2.38-0.41c-0.99,20.21-1.32,40.46-2.12,60.68c-0.02,7.26,0.01,14.53,0.07,21.79c-0.08,0.22-0.16,0.51-0.24,0.9
	c0,0.02-0.01,0.04-0.01,0.06c-0.23-1.66-0.52-2.53-0.81-2.13c-0.04-0.08-0.09-0.13-0.14-0.15c-0.02-0.1-0.04-0.21-0.06-0.31
	c-0.45-1.1-0.95,0.8-1.33,3.09c-0.02-0.62-0.03-1.25-0.07-1.87c0-0.95-0.6-8.1-1.46-4.9c-0.11,0.94-0.21,1.87-0.3,2.81
	c-0.31-2.31-0.74-2.98-1.29,0.6c-0.1-0.7-0.22-1.4-0.36-2.1c-0.67-1.48-1.04,2.22-1.18,4.08c0.37,16.59,0.75,33.18,1.12,49.77
	c0.01,0.27-0.01,0.56-0.03,0.86c0.11,1.86,0.23,3.73,0.34,5.59c0.01,0.08,0.02,0.27,0.03,0.52c2.75-0.25,5.51-0.44,8.28-0.5
	c21.05-0.99,42.15,0.08,63.18,1.18c13.21,0.8,26.39,1.93,39.54,3.34c0.19-7.34,0.55-9.66,0.58-17.01
	c-10.76-1.15-21.91-3.1-32.41-3.76c-17.15-1.25-34.11-2.27-51.31-2.34c-4.37-0.05-12.27,0.08-14.53,0.12
	c0.06-38.44-1.73-78.77-1.32-109.26c0-0.1,0-0.21,0-0.31c0.04-3.82,0.15-7.65,0.22-11.48c10.43-1.52,20.98-2.11,31.51-2.44
	c43.67-1.25,86.79,8.04,128.4,20.52c20.08,6.1,39.87,13.11,59.45,20.64c12.57,4.99,25.15,10.14,36.84,16.98
	c1.22,0.71,2.41,1.47,3.51,2.36c0.4,0.32,0.8,0.63,1.19,0.95c0.42-1.8,0.84-3.61,1.26-5.41
	C1901.45,400.38,1901.42,398.71,1901.42,397.06z"/>
</svg>
